<?xml version="1.0" encoding="UTF-8" standalone="no"?>
<!DOCTYPE svg PUBLIC "-//W3C//DTD SVG 1.1//EN"
 "http://www.w3.org/Graphics/SVG/1.1/DTD/svg11.dtd">
<!-- Generated by graphviz version 13.0.1 (20250615.1724)
 -->
<!-- Title: Trie Pages: 1 -->
<svg width="399pt" height="941pt"
 viewBox="0.00 0.00 399.00 941.00" xmlns="http://www.w3.org/2000/svg" xmlns:xlink="http://www.w3.org/1999/xlink">
<g id="graph0" class="graph" transform="scale(1 1) rotate(0) translate(4 937)">
<title>Trie</title>
<polygon fill="white" stroke="none" points="-4,4 -4,-937 395,-937 395,4 -4,4"/>
<!-- 0 -->
<g id="node1" class="node">
<title>0</title>
<ellipse fill="none" stroke="black" cx="187" cy="-915" rx="18" ry="18"/>
</g>
<!-- 1 -->
<g id="node2" class="node">
<title>1</title>
<ellipse fill="none" stroke="black" cx="35" cy="-502.5" rx="18" ry="18"/>
</g>
<!-- 0&#45;&gt;1 -->
<g id="edge1" class="edge">
<title>0&#45;&gt;1</title>
<path fill="none" stroke="black" d="M168.73,-913.83C121.68,-912.35 0,-901.36 0,-827.5 0,-827.5 0,-827.5 0,-609.5 0,-580.91 11.62,-550.08 21.47,-529.08"/>
<polygon fill="black" stroke="black" points="24.59,-530.66 25.86,-520.14 18.31,-527.57 24.59,-530.66"/>
<text xml:space="preserve" text-anchor="middle" x="4.88" y="-713.45" font-family="Times,serif" font-size="14.00">A</text>
</g>
<!-- 11 -->
<g id="node11" class="node">
<title>11</title>
<ellipse fill="none" stroke="black" cx="46" cy="-826.5" rx="18" ry="18"/>
</g>
<!-- 0&#45;&gt;11 -->
<g id="edge11" class="edge">
<title>0&#45;&gt;11</title>
<path fill="none" stroke="black" d="M171.05,-905.94C157.8,-899.1 138.53,-888.87 122.25,-879 104.09,-868 84.24,-854.54 69.35,-844.14"/>
<polygon fill="black" stroke="black" points="71.77,-841.57 61.58,-838.68 67.74,-847.29 71.77,-841.57"/>
<text xml:space="preserve" text-anchor="middle" x="127.12" y="-865.7" font-family="Times,serif" font-size="14.00">D</text>
</g>
<!-- 19 -->
<g id="node18" class="node">
<title>19</title>
<ellipse fill="none" stroke="black" cx="262" cy="-826.5" rx="18" ry="18"/>
</g>
<!-- 0&#45;&gt;19 -->
<g id="edge19" class="edge">
<title>0&#45;&gt;19</title>
<path fill="none" stroke="black" d="M198.39,-900.86C210.28,-887.14 229.14,-865.4 243.23,-849.14"/>
<polygon fill="black" stroke="black" points="245.6,-851.75 249.51,-841.9 240.31,-847.17 245.6,-851.75"/>
<text xml:space="preserve" text-anchor="middle" x="234.97" y="-865.7" font-family="Times,serif" font-size="14.00">F</text>
</g>
<!-- 27 -->
<g id="node25" class="node">
<title>27</title>
<ellipse fill="none" stroke="black" cx="316" cy="-718.5" rx="18" ry="18"/>
</g>
<!-- 0&#45;&gt;27 -->
<g id="edge27" class="edge">
<title>0&#45;&gt;27</title>
<path fill="none" stroke="black" d="M203.9,-907.52C227.14,-897.67 268.42,-876.61 289,-844.5 307.81,-815.16 313.7,-774.81 315.45,-747.98"/>
<polygon fill="black" stroke="black" points="318.93,-748.36 315.92,-738.2 311.94,-748.02 318.93,-748.36"/>
<text xml:space="preserve" text-anchor="middle" x="307.4" y="-821.45" font-family="Times,serif" font-size="14.00">J</text>
</g>
<!-- 39 -->
<g id="node29" class="node">
<title>39</title>
<ellipse fill="none" stroke="black" cx="361" cy="-772.5" rx="18" ry="18"/>
</g>
<!-- 0&#45;&gt;39 -->
<g id="edge34" class="edge">
<title>0&#45;&gt;39</title>
<path fill="none" stroke="black" d="M205.04,-914.72C234.48,-914.88 292.97,-910.83 327,-879 348.28,-859.09 356.28,-825.83 359.27,-801.97"/>
<polygon fill="black" stroke="black" points="362.72,-802.6 360.24,-792.3 355.76,-801.9 362.72,-802.6"/>
<text xml:space="preserve" text-anchor="middle" x="346.59" y="-865.7" font-family="Times,serif" font-size="14.00">M</text>
</g>
<!-- 45 -->
<g id="node33" class="node">
<title>45</title>
<ellipse fill="none" stroke="black" cx="100" cy="-826.5" rx="18" ry="18"/>
</g>
<!-- 0&#45;&gt;45 -->
<g id="edge40" class="edge">
<title>0&#45;&gt;45</title>
<path fill="none" stroke="black" d="M174.54,-901.61C160.45,-887.6 137.31,-864.6 120.55,-847.93"/>
<polygon fill="black" stroke="black" points="123.07,-845.5 113.52,-840.94 118.14,-850.47 123.07,-845.5"/>
<text xml:space="preserve" text-anchor="middle" x="156.17" y="-865.7" font-family="Times,serif" font-size="14.00">N</text>
</g>
<!-- 53 -->
<g id="node35" class="node">
<title>53</title>
<ellipse fill="none" stroke="black" cx="208" cy="-826.5" rx="18" ry="18"/>
</g>
<!-- 0&#45;&gt;53 -->
<g id="edge43" class="edge">
<title>0&#45;&gt;53</title>
<path fill="none" stroke="black" d="M191.05,-897.32C193.94,-885.43 197.88,-869.17 201.24,-855.33"/>
<polygon fill="black" stroke="black" points="204.58,-856.43 203.53,-845.89 197.77,-854.78 204.58,-856.43"/>
<text xml:space="preserve" text-anchor="middle" x="204.26" y="-865.7" font-family="Times,serif" font-size="14.00">O</text>
</g>
<!-- 60 -->
<g id="node38" class="node">
<title>60</title>
<ellipse fill="none" stroke="black" cx="154" cy="-826.5" rx="18" ry="18"/>
</g>
<!-- 0&#45;&gt;60 -->
<g id="edge47" class="edge">
<title>0&#45;&gt;60</title>
<path fill="none" stroke="black" d="M180.79,-897.73C176.14,-885.53 169.66,-868.55 164.24,-854.35"/>
<polygon fill="black" stroke="black" points="167.55,-853.21 160.72,-845.11 161.01,-855.7 167.55,-853.21"/>
<text xml:space="preserve" text-anchor="middle" x="177.21" y="-865.7" font-family="Times,serif" font-size="14.00">S</text>
</g>
<!-- 2 -->
<g id="node3" class="node">
<title>2</title>
<ellipse fill="none" stroke="black" cx="35" cy="-414" rx="18" ry="18"/>
</g>
<!-- 1&#45;&gt;2 -->
<g id="edge2" class="edge">
<title>1&#45;&gt;2</title>
<path fill="none" stroke="black" d="M35,-484.41C35,-472.76 35,-457.05 35,-443.52"/>
<polygon fill="black" stroke="black" points="38.5,-443.86 35,-433.86 31.5,-443.86 38.5,-443.86"/>
<text xml:space="preserve" text-anchor="middle" x="38.38" y="-453.2" font-family="Times,serif" font-size="14.00">p</text>
</g>
<!-- 6 -->
<g id="node7" class="node">
<title>6</title>
<ellipse fill="none" stroke="black" cx="89" cy="-414" rx="18" ry="18"/>
</g>
<!-- 1&#45;&gt;6 -->
<g id="edge6" class="edge">
<title>1&#45;&gt;6</title>
<path fill="none" stroke="black" d="M44.16,-486.82C52.31,-473.78 64.37,-454.45 73.94,-439.13"/>
<polygon fill="black" stroke="black" points="76.67,-441.36 78.99,-431.03 70.73,-437.66 76.67,-441.36"/>
<text xml:space="preserve" text-anchor="middle" x="70.21" y="-453.2" font-family="Times,serif" font-size="14.00">u</text>
</g>
<!-- 3 -->
<g id="node4" class="node">
<title>3</title>
<ellipse fill="none" stroke="black" cx="46" cy="-325.5" rx="18" ry="18"/>
</g>
<!-- 2&#45;&gt;3 -->
<g id="edge3" class="edge">
<title>2&#45;&gt;3</title>
<path fill="none" stroke="black" d="M37.17,-395.91C38.66,-384.26 40.65,-368.55 42.37,-355.02"/>
<polygon fill="black" stroke="black" points="45.81,-355.71 43.6,-345.35 38.87,-354.83 45.81,-355.71"/>
<text xml:space="preserve" text-anchor="middle" x="43.74" y="-364.7" font-family="Times,serif" font-size="14.00">r</text>
</g>
<!-- 4 -->
<g id="node5" class="node">
<title>4</title>
<ellipse fill="none" stroke="black" cx="90" cy="-183" rx="18" ry="18"/>
</g>
<!-- 3&#45;&gt;4 -->
<g id="edge4" class="edge">
<title>3&#45;&gt;4</title>
<path fill="none" stroke="black" d="M51.22,-307.83C58.66,-284.06 72.41,-240.15 81.38,-211.52"/>
<polygon fill="black" stroke="black" points="84.69,-212.68 84.33,-202.09 78.01,-210.59 84.69,-212.68"/>
<text xml:space="preserve" text-anchor="middle" x="63.36" y="-276.2" font-family="Times,serif" font-size="14.00">i</text>
</g>
<!-- 5 -->
<g id="node6" class="node">
<title>5</title>
<ellipse fill="none" stroke="black" cx="242" cy="-29.25" rx="25.25" ry="25.25"/>
<ellipse fill="none" stroke="black" cx="242" cy="-29.25" rx="29.25" ry="29.25"/>
<text xml:space="preserve" text-anchor="middle" x="242" y="-24.2" font-family="Times,serif" font-size="14.00">true</text>
</g>
<!-- 4&#45;&gt;5 -->
<g id="edge5" class="edge">
<title>4&#45;&gt;5</title>
<path fill="none" stroke="black" d="M89.04,-164.69C89.04,-149.28 91.23,-126.8 102.25,-111 126.58,-76.1 171.21,-54.19 203.5,-42.14"/>
<polygon fill="black" stroke="black" points="204.26,-45.59 212.51,-38.94 201.91,-38.99 204.26,-45.59"/>
<text xml:space="preserve" text-anchor="middle" x="104.12" y="-123.95" font-family="Times,serif" font-size="14.00">l</text>
</g>
<!-- 7 -->
<g id="node8" class="node">
<title>7</title>
<ellipse fill="none" stroke="black" cx="114" cy="-325.5" rx="18" ry="18"/>
</g>
<!-- 6&#45;&gt;7 -->
<g id="edge7" class="edge">
<title>6&#45;&gt;7</title>
<path fill="none" stroke="black" d="M93.82,-396.32C97.28,-384.35 102.02,-367.96 106.03,-354.06"/>
<polygon fill="black" stroke="black" points="109.36,-355.16 108.77,-344.58 102.64,-353.21 109.36,-355.16"/>
<text xml:space="preserve" text-anchor="middle" x="107.11" y="-364.7" font-family="Times,serif" font-size="14.00">g</text>
</g>
<!-- 8 -->
<g id="node9" class="node">
<title>8</title>
<ellipse fill="none" stroke="black" cx="132" cy="-237" rx="18" ry="18"/>
</g>
<!-- 7&#45;&gt;8 -->
<g id="edge8" class="edge">
<title>7&#45;&gt;8</title>
<path fill="none" stroke="black" d="M117.56,-307.41C120,-295.68 123.29,-279.84 126.12,-266.25"/>
<polygon fill="black" stroke="black" points="129.53,-267.04 128.14,-256.53 122.68,-265.61 129.53,-267.04"/>
<text xml:space="preserve" text-anchor="middle" x="127.99" y="-276.2" font-family="Times,serif" font-size="14.00">u</text>
</g>
<!-- 9 -->
<g id="node10" class="node">
<title>9</title>
<ellipse fill="none" stroke="black" cx="133" cy="-129" rx="18" ry="18"/>
</g>
<!-- 8&#45;&gt;9 -->
<g id="edge9" class="edge">
<title>8&#45;&gt;9</title>
<path fill="none" stroke="black" d="M132.16,-218.97C132.31,-202.76 132.55,-178.06 132.73,-158.79"/>
<polygon fill="black" stroke="black" points="136.23,-158.89 132.82,-148.85 129.23,-158.82 136.23,-158.89"/>
<text xml:space="preserve" text-anchor="middle" x="135.27" y="-177.95" font-family="Times,serif" font-size="14.00">s</text>
</g>
<!-- 9&#45;&gt;5 -->
<g id="edge10" class="edge">
<title>9&#45;&gt;5</title>
<path fill="none" stroke="black" d="M145.93,-116.4C162.09,-101.91 190.25,-76.66 211.92,-57.23"/>
<polygon fill="black" stroke="black" points="214.22,-59.86 219.33,-50.58 209.55,-54.65 214.22,-59.86"/>
<text xml:space="preserve" text-anchor="middle" x="189.38" y="-79.7" font-family="Times,serif" font-size="14.00">t</text>
</g>
<!-- 12 -->
<g id="node12" class="node">
<title>12</title>
<ellipse fill="none" stroke="black" cx="51" cy="-664.5" rx="18" ry="18"/>
</g>
<!-- 11&#45;&gt;12 -->
<g id="edge12" class="edge">
<title>11&#45;&gt;12</title>
<path fill="none" stroke="black" d="M46.54,-808.07C47.4,-780.66 49.07,-727.19 50.11,-694.09"/>
<polygon fill="black" stroke="black" points="53.59,-694.52 50.41,-684.42 46.6,-694.3 53.59,-694.52"/>
<text xml:space="preserve" text-anchor="middle" x="51.18" y="-767.45" font-family="Times,serif" font-size="14.00">e</text>
</g>
<!-- 13 -->
<g id="node13" class="node">
<title>13</title>
<ellipse fill="none" stroke="black" cx="128" cy="-502.5" rx="18" ry="18"/>
</g>
<!-- 12&#45;&gt;13 -->
<g id="edge13" class="edge">
<title>12&#45;&gt;13</title>
<path fill="none" stroke="black" d="M58.01,-647.56C68.61,-623.65 89.55,-577.19 109,-538.5 110.59,-535.33 112.31,-532.02 114.04,-528.76"/>
<polygon fill="black" stroke="black" points="117.07,-530.52 118.75,-520.05 110.91,-527.19 117.07,-530.52"/>
<text xml:space="preserve" text-anchor="middle" x="85.1" y="-605.45" font-family="Times,serif" font-size="14.00">c</text>
</g>
<!-- 14 -->
<g id="node14" class="node">
<title>14</title>
<ellipse fill="none" stroke="black" cx="143" cy="-414" rx="18" ry="18"/>
</g>
<!-- 13&#45;&gt;14 -->
<g id="edge14" class="edge">
<title>13&#45;&gt;14</title>
<path fill="none" stroke="black" d="M130.96,-484.41C133,-472.68 135.74,-456.84 138.1,-443.25"/>
<polygon fill="black" stroke="black" points="141.52,-443.99 139.78,-433.54 134.63,-442.8 141.52,-443.99"/>
<text xml:space="preserve" text-anchor="middle" x="139.84" y="-453.2" font-family="Times,serif" font-size="14.00">e</text>
</g>
<!-- 15 -->
<g id="node15" class="node">
<title>15</title>
<ellipse fill="none" stroke="black" cx="181" cy="-325.5" rx="18" ry="18"/>
</g>
<!-- 14&#45;&gt;15 -->
<g id="edge15" class="edge">
<title>14&#45;&gt;15</title>
<path fill="none" stroke="black" d="M149.23,-396.63C153.2,-386.44 158.56,-373.11 163.75,-361.5 165.1,-358.48 166.56,-355.35 168.04,-352.25"/>
<polygon fill="black" stroke="black" points="171.11,-353.94 172.35,-343.42 164.82,-350.87 171.11,-353.94"/>
<text xml:space="preserve" text-anchor="middle" x="169.38" y="-364.7" font-family="Times,serif" font-size="14.00">m</text>
</g>
<!-- 16 -->
<g id="node16" class="node">
<title>16</title>
<ellipse fill="none" stroke="black" cx="188" cy="-237" rx="18" ry="18"/>
</g>
<!-- 15&#45;&gt;16 -->
<g id="edge16" class="edge">
<title>15&#45;&gt;16</title>
<path fill="none" stroke="black" d="M182.38,-307.41C183.33,-295.76 184.6,-280.05 185.69,-266.52"/>
<polygon fill="black" stroke="black" points="189.16,-267.11 186.47,-256.86 182.18,-266.54 189.16,-267.11"/>
<text xml:space="preserve" text-anchor="middle" x="188.5" y="-276.2" font-family="Times,serif" font-size="14.00">b</text>
</g>
<!-- 17 -->
<g id="node17" class="node">
<title>17</title>
<ellipse fill="none" stroke="black" cx="188" cy="-129" rx="18" ry="18"/>
</g>
<!-- 16&#45;&gt;17 -->
<g id="edge17" class="edge">
<title>16&#45;&gt;17</title>
<path fill="none" stroke="black" d="M188,-218.97C188,-202.76 188,-178.06 188,-158.79"/>
<polygon fill="black" stroke="black" points="191.5,-158.85 188,-148.85 184.5,-158.85 191.5,-158.85"/>
<text xml:space="preserve" text-anchor="middle" x="191" y="-177.95" font-family="Times,serif" font-size="14.00">e</text>
</g>
<!-- 17&#45;&gt;5 -->
<g id="edge18" class="edge">
<title>17&#45;&gt;5</title>
<path fill="none" stroke="black" d="M196.44,-112.73C203.46,-100.01 213.74,-81.41 222.75,-65.09"/>
<polygon fill="black" stroke="black" points="225.66,-67.07 227.43,-56.62 219.53,-63.68 225.66,-67.07"/>
<text xml:space="preserve" text-anchor="middle" x="217.25" y="-79.7" font-family="Times,serif" font-size="14.00">r</text>
</g>
<!-- 20 -->
<g id="node19" class="node">
<title>20</title>
<ellipse fill="none" stroke="black" cx="260" cy="-718.5" rx="18" ry="18"/>
</g>
<!-- 19&#45;&gt;20 -->
<g id="edge20" class="edge">
<title>19&#45;&gt;20</title>
<path fill="none" stroke="black" d="M261.68,-808.47C261.37,-792.26 260.91,-767.56 260.54,-748.29"/>
<polygon fill="black" stroke="black" points="264.04,-748.28 260.36,-738.35 257.05,-748.42 264.04,-748.28"/>
<text xml:space="preserve" text-anchor="middle" x="264.3" y="-767.45" font-family="Times,serif" font-size="14.00">e</text>
</g>
<!-- 21 -->
<g id="node20" class="node">
<title>21</title>
<ellipse fill="none" stroke="black" cx="235" cy="-610.5" rx="18" ry="18"/>
</g>
<!-- 20&#45;&gt;21 -->
<g id="edge21" class="edge">
<title>20&#45;&gt;21</title>
<path fill="none" stroke="black" d="M255.98,-700.47C252.12,-684.09 246.21,-659.03 241.64,-639.67"/>
<polygon fill="black" stroke="black" points="245.06,-638.89 239.35,-629.96 238.24,-640.5 245.06,-638.89"/>
<text xml:space="preserve" text-anchor="middle" x="254.57" y="-659.45" font-family="Times,serif" font-size="14.00">b</text>
</g>
<!-- 22 -->
<g id="node21" class="node">
<title>22</title>
<ellipse fill="none" stroke="black" cx="235" cy="-502.5" rx="18" ry="18"/>
</g>
<!-- 21&#45;&gt;22 -->
<g id="edge22" class="edge">
<title>21&#45;&gt;22</title>
<path fill="none" stroke="black" d="M235,-592.47C235,-576.26 235,-551.56 235,-532.29"/>
<polygon fill="black" stroke="black" points="238.5,-532.35 235,-522.35 231.5,-532.35 238.5,-532.35"/>
<text xml:space="preserve" text-anchor="middle" x="237.25" y="-551.45" font-family="Times,serif" font-size="14.00">r</text>
</g>
<!-- 23 -->
<g id="node22" class="node">
<title>23</title>
<ellipse fill="none" stroke="black" cx="235" cy="-414" rx="18" ry="18"/>
</g>
<!-- 22&#45;&gt;23 -->
<g id="edge23" class="edge">
<title>22&#45;&gt;23</title>
<path fill="none" stroke="black" d="M235,-484.41C235,-472.76 235,-457.05 235,-443.52"/>
<polygon fill="black" stroke="black" points="238.5,-443.86 235,-433.86 231.5,-443.86 238.5,-443.86"/>
<text xml:space="preserve" text-anchor="middle" x="238.38" y="-453.2" font-family="Times,serif" font-size="14.00">u</text>
</g>
<!-- 24 -->
<g id="node23" class="node">
<title>24</title>
<ellipse fill="none" stroke="black" cx="235" cy="-325.5" rx="18" ry="18"/>
</g>
<!-- 23&#45;&gt;24 -->
<g id="edge24" class="edge">
<title>23&#45;&gt;24</title>
<path fill="none" stroke="black" d="M235,-395.91C235,-384.26 235,-368.55 235,-355.02"/>
<polygon fill="black" stroke="black" points="238.5,-355.36 235,-345.36 231.5,-355.36 238.5,-355.36"/>
<text xml:space="preserve" text-anchor="middle" x="238" y="-364.7" font-family="Times,serif" font-size="14.00">a</text>
</g>
<!-- 25 -->
<g id="node24" class="node">
<title>25</title>
<ellipse fill="none" stroke="black" cx="242" cy="-237" rx="18" ry="18"/>
</g>
<!-- 24&#45;&gt;25 -->
<g id="edge25" class="edge">
<title>24&#45;&gt;25</title>
<path fill="none" stroke="black" d="M236.38,-307.41C237.33,-295.76 238.6,-280.05 239.69,-266.52"/>
<polygon fill="black" stroke="black" points="243.16,-267.11 240.47,-256.86 236.18,-266.54 243.16,-267.11"/>
<text xml:space="preserve" text-anchor="middle" x="241.38" y="-276.2" font-family="Times,serif" font-size="14.00">r</text>
</g>
<!-- 25&#45;&gt;5 -->
<g id="edge26" class="edge">
<title>25&#45;&gt;5</title>
<path fill="none" stroke="black" d="M242,-218.81C242,-186.36 242,-115.3 242,-70.28"/>
<polygon fill="black" stroke="black" points="245.5,-70.39 242,-60.39 238.5,-70.39 245.5,-70.39"/>
<text xml:space="preserve" text-anchor="middle" x="245.38" y="-123.95" font-family="Times,serif" font-size="14.00">y</text>
</g>
<!-- 28 -->
<g id="node26" class="node">
<title>28</title>
<ellipse fill="none" stroke="black" cx="289" cy="-610.5" rx="18" ry="18"/>
</g>
<!-- 27&#45;&gt;28 -->
<g id="edge28" class="edge">
<title>27&#45;&gt;28</title>
<path fill="none" stroke="black" d="M311.78,-700.94C307.59,-684.46 301.07,-658.89 296.08,-639.3"/>
<polygon fill="black" stroke="black" points="299.51,-638.59 293.65,-629.76 292.73,-640.32 299.51,-638.59"/>
<text xml:space="preserve" text-anchor="middle" x="309.5" y="-659.45" font-family="Times,serif" font-size="14.00">a</text>
</g>
<!-- 34 -->
<g id="node27" class="node">
<title>34</title>
<ellipse fill="none" stroke="black" cx="289" cy="-325.5" rx="18" ry="18"/>
</g>
<!-- 27&#45;&gt;34 -->
<g id="edge30" class="edge">
<title>27&#45;&gt;34</title>
<path fill="none" stroke="black" d="M320.89,-700.77C326.52,-680.02 335,-643.47 335,-611.5 335,-611.5 335,-611.5 335,-413 335,-388.83 320.82,-364.84 308.21,-348.27"/>
<polygon fill="black" stroke="black" points="311.04,-346.2 302.04,-340.61 305.59,-350.6 311.04,-346.2"/>
<text xml:space="preserve" text-anchor="middle" x="338.38" y="-497.45" font-family="Times,serif" font-size="14.00">u</text>
</g>
<!-- 28&#45;&gt;22 -->
<g id="edge29" class="edge">
<title>28&#45;&gt;22</title>
<path fill="none" stroke="black" d="M281.03,-593.86C272.33,-576.77 258.26,-549.15 247.96,-528.93"/>
<polygon fill="black" stroke="black" points="251.17,-527.53 243.51,-520.21 244.93,-530.71 251.17,-527.53"/>
<text xml:space="preserve" text-anchor="middle" x="273.37" y="-551.45" font-family="Times,serif" font-size="14.00">n</text>
</g>
<!-- 34&#45;&gt;25 -->
<g id="edge31" class="edge">
<title>34&#45;&gt;25</title>
<path fill="none" stroke="black" d="M279.9,-309.63C276.2,-303.46 271.93,-296.18 268.25,-289.5 263.67,-281.19 258.9,-271.99 254.69,-263.69"/>
<polygon fill="black" stroke="black" points="257.85,-262.18 250.24,-254.81 251.59,-265.32 257.85,-262.18"/>
<text xml:space="preserve" text-anchor="middle" x="270.12" y="-276.2" font-family="Times,serif" font-size="14.00">l</text>
</g>
<!-- 37 -->
<g id="node28" class="node">
<title>37</title>
<ellipse fill="none" stroke="black" cx="286" cy="-183" rx="18" ry="18"/>
</g>
<!-- 34&#45;&gt;37 -->
<g id="edge32" class="edge">
<title>34&#45;&gt;37</title>
<path fill="none" stroke="black" d="M288.63,-307.27C288.13,-283.68 287.22,-241 286.61,-212.58"/>
<polygon fill="black" stroke="black" points="290.12,-212.8 286.4,-202.88 283.12,-212.95 290.12,-212.8"/>
<text xml:space="preserve" text-anchor="middle" x="291.62" y="-276.2" font-family="Times,serif" font-size="14.00">n</text>
</g>
<!-- 37&#45;&gt;5 -->
<g id="edge33" class="edge">
<title>37&#45;&gt;5</title>
<path fill="none" stroke="black" d="M281.31,-165.16C275.48,-144.32 265.17,-107.74 256,-76.5 255.24,-73.92 254.46,-71.26 253.66,-68.58"/>
<polygon fill="black" stroke="black" points="257.03,-67.64 250.8,-59.07 250.32,-69.65 257.03,-67.64"/>
<text xml:space="preserve" text-anchor="middle" x="279.15" y="-123.95" font-family="Times,serif" font-size="14.00">e</text>
</g>
<!-- 40 -->
<g id="node30" class="node">
<title>40</title>
<ellipse fill="none" stroke="black" cx="373" cy="-325.5" rx="18" ry="18"/>
</g>
<!-- 39&#45;&gt;40 -->
<g id="edge35" class="edge">
<title>39&#45;&gt;40</title>
<path fill="none" stroke="black" d="M364.15,-754.31C367.71,-733.4 373,-696.98 373,-665.5 373,-665.5 373,-665.5 373,-413 373,-393.66 373,-371.9 373,-355.04"/>
<polygon fill="black" stroke="black" points="376.5,-355.24 373,-345.24 369.5,-355.24 376.5,-355.24"/>
<text xml:space="preserve" text-anchor="middle" x="376" y="-551.45" font-family="Times,serif" font-size="14.00">a</text>
</g>
<!-- 40&#45;&gt;5 -->
<g id="edge39" class="edge">
<title>40&#45;&gt;5</title>
<path fill="none" stroke="black" d="M366.67,-308.44C346.35,-257.03 283.51,-98.55 272,-76.5 269.7,-72.08 267.09,-67.55 264.4,-63.14"/>
<polygon fill="black" stroke="black" points="267.57,-61.6 259.26,-55.02 261.65,-65.34 267.57,-61.6"/>
<text xml:space="preserve" text-anchor="middle" x="326.68" y="-177.95" font-family="Times,serif" font-size="14.00">y</text>
</g>
<!-- 41 -->
<g id="node31" class="node">
<title>41</title>
<ellipse fill="none" stroke="black" cx="373" cy="-237" rx="18" ry="18"/>
</g>
<!-- 40&#45;&gt;41 -->
<g id="edge36" class="edge">
<title>40&#45;&gt;41</title>
<path fill="none" stroke="black" d="M373,-307.41C373,-295.76 373,-280.05 373,-266.52"/>
<polygon fill="black" stroke="black" points="376.5,-266.86 373,-256.86 369.5,-266.86 376.5,-266.86"/>
<text xml:space="preserve" text-anchor="middle" x="375.25" y="-276.2" font-family="Times,serif" font-size="14.00">r</text>
</g>
<!-- 42 -->
<g id="node32" class="node">
<title>42</title>
<ellipse fill="none" stroke="black" cx="373" cy="-129" rx="18" ry="18"/>
</g>
<!-- 41&#45;&gt;42 -->
<g id="edge37" class="edge">
<title>41&#45;&gt;42</title>
<path fill="none" stroke="black" d="M373,-218.97C373,-202.76 373,-178.06 373,-158.79"/>
<polygon fill="black" stroke="black" points="376.5,-158.85 373,-148.85 369.5,-158.85 376.5,-158.85"/>
<text xml:space="preserve" text-anchor="middle" x="376" y="-177.95" font-family="Times,serif" font-size="14.00">c</text>
</g>
<!-- 42&#45;&gt;5 -->
<g id="edge38" class="edge">
<title>42&#45;&gt;5</title>
<path fill="none" stroke="black" d="M366.03,-111.88C360.56,-100.77 352.02,-86.28 341,-76.5 323.72,-61.16 300.48,-49.95 280.86,-42.41"/>
<polygon fill="black" stroke="black" points="282.11,-39.14 271.52,-39.01 279.72,-45.72 282.11,-39.14"/>
<text xml:space="preserve" text-anchor="middle" x="358.35" y="-79.7" font-family="Times,serif" font-size="14.00">h</text>
</g>
<!-- 46 -->
<g id="node34" class="node">
<title>46</title>
<ellipse fill="none" stroke="black" cx="100" cy="-664.5" rx="18" ry="18"/>
</g>
<!-- 45&#45;&gt;46 -->
<g id="edge41" class="edge">
<title>45&#45;&gt;46</title>
<path fill="none" stroke="black" d="M100,-808.07C100,-780.66 100,-727.19 100,-694.09"/>
<polygon fill="black" stroke="black" points="103.5,-694.42 100,-684.42 96.5,-694.42 103.5,-694.42"/>
<text xml:space="preserve" text-anchor="middle" x="103.38" y="-767.45" font-family="Times,serif" font-size="14.00">o</text>
</g>
<!-- 46&#45;&gt;13 -->
<g id="edge42" class="edge">
<title>46&#45;&gt;13</title>
<path fill="none" stroke="black" d="M101.87,-646.23C103.52,-631.81 106.14,-610.76 109.25,-592.5 112.74,-572.01 117.6,-549.06 121.49,-531.6"/>
<polygon fill="black" stroke="black" points="124.88,-532.49 123.67,-521.96 118.05,-530.94 124.88,-532.49"/>
<text xml:space="preserve" text-anchor="middle" x="112.62" y="-605.45" font-family="Times,serif" font-size="14.00">v</text>
</g>
<!-- 54 -->
<g id="node36" class="node">
<title>54</title>
<ellipse fill="none" stroke="black" cx="202" cy="-718.5" rx="18" ry="18"/>
</g>
<!-- 53&#45;&gt;54 -->
<g id="edge44" class="edge">
<title>53&#45;&gt;54</title>
<path fill="none" stroke="black" d="M207.04,-808.47C206.12,-792.26 204.72,-767.56 203.63,-748.29"/>
<polygon fill="black" stroke="black" points="207.13,-748.14 203.07,-738.35 200.14,-748.53 207.13,-748.14"/>
<text xml:space="preserve" text-anchor="middle" x="208.89" y="-767.45" font-family="Times,serif" font-size="14.00">c</text>
</g>
<!-- 55 -->
<g id="node37" class="node">
<title>55</title>
<ellipse fill="none" stroke="black" cx="189" cy="-556.5" rx="18" ry="18"/>
</g>
<!-- 54&#45;&gt;55 -->
<g id="edge45" class="edge">
<title>54&#45;&gt;55</title>
<path fill="none" stroke="black" d="M200.58,-700.07C198.36,-672.66 194.01,-619.19 191.32,-586.09"/>
<polygon fill="black" stroke="black" points="194.84,-586.1 190.54,-576.41 187.86,-586.66 194.84,-586.1"/>
<text xml:space="preserve" text-anchor="middle" x="200.83" y="-659.45" font-family="Times,serif" font-size="14.00">t</text>
</g>
<!-- 55&#45;&gt;15 -->
<g id="edge46" class="edge">
<title>55&#45;&gt;15</title>
<path fill="none" stroke="black" d="M188.4,-538.29C187.03,-499.25 183.69,-403.63 182.01,-355.37"/>
<polygon fill="black" stroke="black" points="185.51,-355.29 181.66,-345.42 178.51,-355.54 185.51,-355.29"/>
<text xml:space="preserve" text-anchor="middle" x="189.24" y="-453.2" font-family="Times,serif" font-size="14.00">o</text>
</g>
<!-- 61 -->
<g id="node39" class="node">
<title>61</title>
<ellipse fill="none" stroke="black" cx="147" cy="-718.5" rx="18" ry="18"/>
</g>
<!-- 60&#45;&gt;61 -->
<g id="edge48" class="edge">
<title>60&#45;&gt;61</title>
<path fill="none" stroke="black" d="M152.88,-808.47C151.81,-792.26 150.17,-767.56 148.9,-748.29"/>
<polygon fill="black" stroke="black" points="152.4,-748.1 148.24,-738.35 145.41,-748.56 152.4,-748.1"/>
<text xml:space="preserve" text-anchor="middle" x="154.54" y="-767.45" font-family="Times,serif" font-size="14.00">e</text>
</g>
<!-- 62 -->
<g id="node40" class="node">
<title>62</title>
<ellipse fill="none" stroke="black" cx="143" cy="-610.5" rx="18" ry="18"/>
</g>
<!-- 61&#45;&gt;62 -->
<g id="edge49" class="edge">
<title>61&#45;&gt;62</title>
<path fill="none" stroke="black" d="M146.36,-700.47C145.75,-684.26 144.81,-659.56 144.09,-640.29"/>
<polygon fill="black" stroke="black" points="147.59,-640.21 143.71,-630.35 140.59,-640.48 147.59,-640.21"/>
<text xml:space="preserve" text-anchor="middle" x="148.97" y="-659.45" font-family="Times,serif" font-size="14.00">p</text>
</g>
<!-- 62&#45;&gt;13 -->
<g id="edge50" class="edge">
<title>62&#45;&gt;13</title>
<path fill="none" stroke="black" d="M140.59,-592.47C138.27,-576.09 134.73,-551.03 131.99,-531.67"/>
<polygon fill="black" stroke="black" points="135.48,-531.4 130.62,-521.99 128.55,-532.38 135.48,-531.4"/>
<text xml:space="preserve" text-anchor="middle" x="139.59" y="-551.45" font-family="Times,serif" font-size="14.00">t</text>
</g>
</g>
</svg>
