<?xml version="1.0" encoding="UTF-8" standalone="no"?>
<!DOCTYPE svg PUBLIC "-//W3C//DTD SVG 1.1//EN"
 "http://www.w3.org/Graphics/SVG/1.1/DTD/svg11.dtd">
<!-- Generated by graphviz version 13.0.1 (20250615.1724)
 -->
<!-- Title: FST Pages: 1 -->
<svg width="497pt" height="944pt"
 viewBox="0.00 0.00 497.00 944.00" xmlns="http://www.w3.org/2000/svg" xmlns:xlink="http://www.w3.org/1999/xlink">
<g id="graph0" class="graph" transform="scale(1 1) rotate(0) translate(4 939.88)">
<title>FST</title>
<polygon fill="white" stroke="none" points="-4,4 -4,-939.88 493,-939.88 493,4 -4,4"/>
<!-- 0 -->
<g id="node1" class="node">
<title>0</title>
<ellipse fill="none" stroke="black" cx="289" cy="-917.88" rx="18" ry="18"/>
</g>
<!-- 1 -->
<g id="node2" class="node">
<title>1</title>
<ellipse fill="none" stroke="black" cx="72" cy="-505.38" rx="18" ry="18"/>
</g>
<!-- 0&#45;&gt;1 -->
<g id="edge1" class="edge">
<title>0&#45;&gt;1</title>
<path fill="none" stroke="black" d="M270.72,-917.27C220.99,-917.28 87,-909.92 87,-830.38 87,-830.38 87,-830.38 87,-612.38 87,-585.69 82.28,-555.58 78.13,-534.3"/>
<polygon fill="black" stroke="black" points="81.59,-533.75 76.17,-524.65 74.74,-535.15 81.59,-533.75"/>
<text xml:space="preserve" text-anchor="middle" x="100.12" y="-716.33" font-family="Times,serif" font-size="14.00">A|30</text>
</g>
<!-- 11 -->
<g id="node11" class="node">
<title>11</title>
<ellipse fill="none" stroke="black" cx="417" cy="-829.38" rx="18" ry="18"/>
</g>
<!-- 0&#45;&gt;11 -->
<g id="edge11" class="edge">
<title>0&#45;&gt;11</title>
<path fill="none" stroke="black" d="M306.38,-912.09C324.03,-906.67 351.59,-896.63 372,-881.88 382.79,-874.08 392.77,-863.23 400.57,-853.5"/>
<polygon fill="black" stroke="black" points="403.12,-855.92 406.42,-845.85 397.56,-851.67 403.12,-855.92"/>
<text xml:space="preserve" text-anchor="middle" x="403.19" y="-868.58" font-family="Times,serif" font-size="14.00">D|31</text>
</g>
<!-- 19 -->
<g id="node18" class="node">
<title>19</title>
<ellipse fill="none" stroke="black" cx="179" cy="-829.38" rx="18" ry="18"/>
</g>
<!-- 0&#45;&gt;19 -->
<g id="edge19" class="edge">
<title>0&#45;&gt;19</title>
<path fill="none" stroke="black" d="M270.75,-916.09C247.52,-914.05 207.92,-906.85 187,-881.88 181.63,-875.47 179.09,-866.97 178.05,-858.73"/>
<polygon fill="black" stroke="black" points="181.56,-858.8 177.5,-849.01 174.57,-859.19 181.56,-858.8"/>
<text xml:space="preserve" text-anchor="middle" x="199" y="-868.58" font-family="Times,serif" font-size="14.00">F|28</text>
</g>
<!-- 27 -->
<g id="node26" class="node">
<title>27</title>
<ellipse fill="none" stroke="black" cx="225" cy="-613.38" rx="18" ry="18"/>
</g>
<!-- 0&#45;&gt;27 -->
<g id="edge27" class="edge">
<title>0&#45;&gt;27</title>
<path fill="none" stroke="black" d="M275.76,-905.27C269.12,-898.89 261.37,-890.54 256,-881.88 233.89,-846.24 230.64,-834.66 223.25,-793.38 213.86,-740.98 217.82,-678.56 221.47,-642.99"/>
<polygon fill="black" stroke="black" points="224.94,-643.41 222.56,-633.09 217.99,-642.65 224.94,-643.41"/>
<text xml:space="preserve" text-anchor="middle" x="234.12" y="-770.33" font-family="Times,serif" font-size="14.00">J|30</text>
</g>
<!-- 39 -->
<g id="node34" class="node">
<title>39</title>
<ellipse fill="none" stroke="black" cx="272" cy="-775.38" rx="18" ry="18"/>
</g>
<!-- 0&#45;&gt;39 -->
<g id="edge38" class="edge">
<title>0&#45;&gt;39</title>
<path fill="none" stroke="black" d="M277,-904.35C271.86,-898.11 266.42,-890.15 263.75,-881.88 255.51,-856.36 259.35,-825.64 264.17,-803.95"/>
<polygon fill="black" stroke="black" points="267.53,-804.94 266.52,-794.39 260.73,-803.27 267.53,-804.94"/>
<text xml:space="preserve" text-anchor="middle" x="278.38" y="-868.58" font-family="Times,serif" font-size="14.00">M|31</text>
</g>
<!-- 45 -->
<g id="node38" class="node">
<title>45</title>
<ellipse fill="none" stroke="black" cx="363" cy="-829.38" rx="18" ry="18"/>
</g>
<!-- 0&#45;&gt;45 -->
<g id="edge44" class="edge">
<title>0&#45;&gt;45</title>
<path fill="none" stroke="black" d="M303.17,-906.05C311.23,-899.53 321.23,-890.78 329,-881.88 336.09,-873.76 342.86,-864.07 348.47,-855.29"/>
<polygon fill="black" stroke="black" points="351.4,-857.2 353.67,-846.85 345.44,-853.53 351.4,-857.2"/>
<text xml:space="preserve" text-anchor="middle" x="354.56" y="-868.58" font-family="Times,serif" font-size="14.00">N|30</text>
</g>
<!-- 53 -->
<g id="node40" class="node">
<title>53</title>
<ellipse fill="none" stroke="black" cx="471" cy="-829.38" rx="18" ry="18"/>
</g>
<!-- 0&#45;&gt;53 -->
<g id="edge47" class="edge">
<title>0&#45;&gt;53</title>
<path fill="none" stroke="black" d="M307.09,-915.08C333.47,-911.81 383.35,-903.14 420,-881.88 432.8,-874.46 444.59,-862.99 453.61,-852.76"/>
<polygon fill="black" stroke="black" points="456.06,-855.29 459.81,-845.38 450.7,-850.79 456.06,-855.29"/>
<text xml:space="preserve" text-anchor="middle" x="453.58" y="-868.58" font-family="Times,serif" font-size="14.00">O|31</text>
</g>
<!-- 60 -->
<g id="node43" class="node">
<title>60</title>
<ellipse fill="none" stroke="black" cx="309" cy="-829.38" rx="18" ry="18"/>
</g>
<!-- 0&#45;&gt;60 -->
<g id="edge51" class="edge">
<title>0&#45;&gt;60</title>
<path fill="none" stroke="black" d="M292.86,-900.2C295.61,-888.31 299.37,-872.05 302.57,-858.21"/>
<polygon fill="black" stroke="black" points="305.9,-859.31 304.75,-848.78 299.08,-857.73 305.9,-859.31"/>
<text xml:space="preserve" text-anchor="middle" x="312.79" y="-868.58" font-family="Times,serif" font-size="14.00">S|30</text>
</g>
<!-- 2 -->
<g id="node3" class="node">
<title>2</title>
<ellipse fill="none" stroke="black" cx="18" cy="-416.88" rx="18" ry="18"/>
</g>
<!-- 1&#45;&gt;2 -->
<g id="edge2" class="edge">
<title>1&#45;&gt;2</title>
<path fill="none" stroke="black" d="M62.84,-489.71C54.69,-476.66 42.63,-457.33 33.06,-442.01"/>
<polygon fill="black" stroke="black" points="36.27,-440.54 28.01,-433.91 30.33,-444.25 36.27,-440.54"/>
<text xml:space="preserve" text-anchor="middle" x="53.21" y="-456.08" font-family="Times,serif" font-size="14.00">p</text>
</g>
<!-- 6 -->
<g id="node7" class="node">
<title>6</title>
<ellipse fill="none" stroke="black" cx="72" cy="-416.88" rx="18" ry="18"/>
</g>
<!-- 1&#45;&gt;6 -->
<g id="edge6" class="edge">
<title>1&#45;&gt;6</title>
<path fill="none" stroke="black" d="M72,-487.29C72,-475.64 72,-459.93 72,-446.4"/>
<polygon fill="black" stroke="black" points="75.5,-446.74 72,-436.74 68.5,-446.74 75.5,-446.74"/>
<text xml:space="preserve" text-anchor="middle" x="80.25" y="-456.08" font-family="Times,serif" font-size="14.00">u|1</text>
</g>
<!-- 3 -->
<g id="node4" class="node">
<title>3</title>
<ellipse fill="none" stroke="black" cx="18" cy="-328.38" rx="18" ry="18"/>
</g>
<!-- 2&#45;&gt;3 -->
<g id="edge3" class="edge">
<title>2&#45;&gt;3</title>
<path fill="none" stroke="black" d="M18,-398.79C18,-387.14 18,-371.43 18,-357.9"/>
<polygon fill="black" stroke="black" points="21.5,-358.24 18,-348.24 14.5,-358.24 21.5,-358.24"/>
<text xml:space="preserve" text-anchor="middle" x="20.25" y="-367.58" font-family="Times,serif" font-size="14.00">r</text>
</g>
<!-- 4 -->
<g id="node5" class="node">
<title>4</title>
<ellipse fill="none" stroke="black" cx="18" cy="-185.88" rx="18" ry="18"/>
</g>
<!-- 3&#45;&gt;4 -->
<g id="edge4" class="edge">
<title>3&#45;&gt;4</title>
<path fill="none" stroke="black" d="M18,-310.15C18,-286.56 18,-243.88 18,-215.46"/>
<polygon fill="black" stroke="black" points="21.5,-215.76 18,-205.76 14.5,-215.76 21.5,-215.76"/>
<text xml:space="preserve" text-anchor="middle" x="19.88" y="-279.08" font-family="Times,serif" font-size="14.00">i</text>
</g>
<!-- 5 -->
<g id="node6" class="node">
<title>5</title>
<ellipse fill="none" stroke="black" cx="238" cy="-22" rx="18" ry="18"/>
<ellipse fill="none" stroke="black" cx="238" cy="-22" rx="22" ry="22"/>
<text xml:space="preserve" text-anchor="middle" x="238" y="-16.95" font-family="Times,serif" font-size="14.00">0</text>
</g>
<!-- 4&#45;&gt;5 -->
<g id="edge5" class="edge">
<title>4&#45;&gt;5</title>
<path fill="none" stroke="black" d="M14.95,-167.72C12.53,-148.41 11.73,-117.07 27.25,-96.5 69.2,-40.89 156.16,-27.14 204.22,-23.88"/>
<polygon fill="black" stroke="black" points="204.25,-27.38 214.04,-23.34 203.87,-20.39 204.25,-27.38"/>
<text xml:space="preserve" text-anchor="middle" x="29.12" y="-118.14" font-family="Times,serif" font-size="14.00">l</text>
</g>
<!-- 7 -->
<g id="node8" class="node">
<title>7</title>
<ellipse fill="none" stroke="black" cx="72" cy="-328.38" rx="18" ry="18"/>
</g>
<!-- 6&#45;&gt;7 -->
<g id="edge7" class="edge">
<title>6&#45;&gt;7</title>
<path fill="none" stroke="black" d="M72,-398.79C72,-387.14 72,-371.43 72,-357.9"/>
<polygon fill="black" stroke="black" points="75.5,-358.24 72,-348.24 68.5,-358.24 75.5,-358.24"/>
<text xml:space="preserve" text-anchor="middle" x="75.38" y="-367.58" font-family="Times,serif" font-size="14.00">g</text>
</g>
<!-- 8 -->
<g id="node9" class="node">
<title>8</title>
<ellipse fill="none" stroke="black" cx="66" cy="-239.88" rx="18" ry="18"/>
</g>
<!-- 7&#45;&gt;8 -->
<g id="edge8" class="edge">
<title>7&#45;&gt;8</title>
<path fill="none" stroke="black" d="M70.81,-310.29C70.01,-298.64 68.92,-282.93 67.98,-269.4"/>
<polygon fill="black" stroke="black" points="71.49,-269.47 67.31,-259.74 64.51,-269.96 71.49,-269.47"/>
<text xml:space="preserve" text-anchor="middle" x="72.91" y="-279.08" font-family="Times,serif" font-size="14.00">u</text>
</g>
<!-- 9 -->
<g id="node10" class="node">
<title>9</title>
<ellipse fill="none" stroke="black" cx="58" cy="-123.19" rx="18" ry="18"/>
</g>
<!-- 8&#45;&gt;9 -->
<g id="edge9" class="edge">
<title>8&#45;&gt;9</title>
<path fill="none" stroke="black" d="M64.78,-221.46C63.51,-203.25 61.5,-174.38 60,-152.81"/>
<polygon fill="black" stroke="black" points="63.49,-152.64 59.31,-142.91 56.51,-153.13 63.49,-152.64"/>
<text xml:space="preserve" text-anchor="middle" x="66.04" y="-180.83" font-family="Times,serif" font-size="14.00">s</text>
</g>
<!-- 9&#45;&gt;5 -->
<g id="edge10" class="edge">
<title>9&#45;&gt;5</title>
<path fill="none" stroke="black" d="M69.93,-109.29C74.39,-104.9 79.68,-100.18 85,-96.5 124.16,-69.47 174.78,-47.3 206.84,-34.61"/>
<polygon fill="black" stroke="black" points="207.88,-37.96 215.94,-31.07 205.35,-31.43 207.88,-37.96"/>
<text xml:space="preserve" text-anchor="middle" x="143.18" y="-65.2" font-family="Times,serif" font-size="14.00">t</text>
</g>
<!-- 12 -->
<g id="node12" class="node">
<title>12</title>
<ellipse fill="none" stroke="black" cx="417" cy="-667.38" rx="18" ry="18"/>
</g>
<!-- 11&#45;&gt;12 -->
<g id="edge12" class="edge">
<title>11&#45;&gt;12</title>
<path fill="none" stroke="black" d="M417,-810.95C417,-783.54 417,-730.07 417,-696.97"/>
<polygon fill="black" stroke="black" points="420.5,-697.3 417,-687.3 413.5,-697.3 420.5,-697.3"/>
<text xml:space="preserve" text-anchor="middle" x="420" y="-770.33" font-family="Times,serif" font-size="14.00">e</text>
</g>
<!-- 13 -->
<g id="node13" class="node">
<title>13</title>
<ellipse fill="none" stroke="black" cx="375" cy="-505.38" rx="18" ry="18"/>
</g>
<!-- 12&#45;&gt;13 -->
<g id="edge13" class="edge">
<title>12&#45;&gt;13</title>
<path fill="none" stroke="black" d="M413.43,-649.26C408.26,-625.06 398.09,-579.53 387,-541.38 386.24,-538.78 385.41,-536.08 384.55,-533.4"/>
<polygon fill="black" stroke="black" points="387.92,-532.46 381.42,-524.09 381.29,-534.69 387.92,-532.46"/>
<text xml:space="preserve" text-anchor="middle" x="412.35" y="-608.33" font-family="Times,serif" font-size="14.00">c</text>
</g>
<!-- 14 -->
<g id="node14" class="node">
<title>14</title>
<ellipse fill="none" stroke="black" cx="383" cy="-416.88" rx="18" ry="18"/>
</g>
<!-- 13&#45;&gt;14 -->
<g id="edge14" class="edge">
<title>13&#45;&gt;14</title>
<path fill="none" stroke="black" d="M376.58,-487.29C377.66,-475.64 379.11,-459.93 380.36,-446.4"/>
<polygon fill="black" stroke="black" points="383.82,-447.02 381.26,-436.74 376.85,-446.37 383.82,-447.02"/>
<text xml:space="preserve" text-anchor="middle" x="382.72" y="-456.08" font-family="Times,serif" font-size="14.00">e</text>
</g>
<!-- 15 -->
<g id="node15" class="node">
<title>15</title>
<ellipse fill="none" stroke="black" cx="384" cy="-328.38" rx="18" ry="18"/>
</g>
<!-- 14&#45;&gt;15 -->
<g id="edge15" class="edge">
<title>14&#45;&gt;15</title>
<path fill="none" stroke="black" d="M383.2,-398.79C383.33,-387.14 383.51,-371.43 383.67,-357.9"/>
<polygon fill="black" stroke="black" points="387.17,-358.28 383.78,-348.24 380.17,-358.2 387.17,-358.28"/>
<text xml:space="preserve" text-anchor="middle" x="389.21" y="-367.58" font-family="Times,serif" font-size="14.00">m</text>
</g>
<!-- 16 -->
<g id="node16" class="node">
<title>16</title>
<ellipse fill="none" stroke="black" cx="384" cy="-239.88" rx="18" ry="18"/>
</g>
<!-- 15&#45;&gt;16 -->
<g id="edge16" class="edge">
<title>15&#45;&gt;16</title>
<path fill="none" stroke="black" d="M384,-310.29C384,-298.64 384,-282.93 384,-269.4"/>
<polygon fill="black" stroke="black" points="387.5,-269.74 384,-259.74 380.5,-269.74 387.5,-269.74"/>
<text xml:space="preserve" text-anchor="middle" x="387.38" y="-279.08" font-family="Times,serif" font-size="14.00">b</text>
</g>
<!-- 17 -->
<g id="node17" class="node">
<title>17</title>
<ellipse fill="none" stroke="black" cx="384" cy="-123.19" rx="18" ry="18"/>
</g>
<!-- 16&#45;&gt;17 -->
<g id="edge17" class="edge">
<title>16&#45;&gt;17</title>
<path fill="none" stroke="black" d="M384,-221.46C384,-203.25 384,-174.38 384,-152.81"/>
<polygon fill="black" stroke="black" points="387.5,-152.91 384,-142.91 380.5,-152.91 387.5,-152.91"/>
<text xml:space="preserve" text-anchor="middle" x="387" y="-180.83" font-family="Times,serif" font-size="14.00">e</text>
</g>
<!-- 17&#45;&gt;5 -->
<g id="edge18" class="edge">
<title>17&#45;&gt;5</title>
<path fill="none" stroke="black" d="M378.94,-105.43C374.06,-91.95 365.42,-73.44 352,-62 329.05,-42.44 295.79,-32.54 271.12,-27.63"/>
<polygon fill="black" stroke="black" points="272.07,-24.24 261.61,-25.91 270.83,-31.13 272.07,-24.24"/>
<text xml:space="preserve" text-anchor="middle" x="367.47" y="-65.2" font-family="Times,serif" font-size="14.00">r</text>
</g>
<!-- 20 -->
<g id="node19" class="node">
<title>20</title>
<ellipse fill="none" stroke="black" cx="179" cy="-721.38" rx="18" ry="18"/>
</g>
<!-- 19&#45;&gt;20 -->
<g id="edge20" class="edge">
<title>19&#45;&gt;20</title>
<path fill="none" stroke="black" d="M179,-811.35C179,-795.14 179,-770.44 179,-751.17"/>
<polygon fill="black" stroke="black" points="182.5,-751.23 179,-741.23 175.5,-751.23 182.5,-751.23"/>
<text xml:space="preserve" text-anchor="middle" x="182" y="-770.33" font-family="Times,serif" font-size="14.00">e</text>
</g>
<!-- 21 -->
<g id="node20" class="node">
<title>21</title>
<ellipse fill="none" stroke="black" cx="154" cy="-613.38" rx="18" ry="18"/>
</g>
<!-- 20&#45;&gt;21 -->
<g id="edge21" class="edge">
<title>20&#45;&gt;21</title>
<path fill="none" stroke="black" d="M174.98,-703.35C171.12,-686.97 165.21,-661.91 160.64,-642.55"/>
<polygon fill="black" stroke="black" points="164.06,-641.77 158.35,-632.84 157.24,-643.38 164.06,-641.77"/>
<text xml:space="preserve" text-anchor="middle" x="173.57" y="-662.33" font-family="Times,serif" font-size="14.00">b</text>
</g>
<!-- 22 -->
<g id="node21" class="node">
<title>22</title>
<ellipse fill="none" stroke="black" cx="132" cy="-505.38" rx="18" ry="18"/>
</g>
<!-- 21&#45;&gt;22 -->
<g id="edge22" class="edge">
<title>21&#45;&gt;22</title>
<path fill="none" stroke="black" d="M150.47,-595.35C147.07,-578.97 141.86,-553.91 137.85,-534.55"/>
<polygon fill="black" stroke="black" points="141.29,-533.93 135.83,-524.85 134.44,-535.35 141.29,-533.93"/>
<text xml:space="preserve" text-anchor="middle" x="148.51" y="-554.33" font-family="Times,serif" font-size="14.00">r</text>
</g>
<!-- 23 -->
<g id="node22" class="node">
<title>23</title>
<ellipse fill="none" stroke="black" cx="128" cy="-416.88" rx="18" ry="18"/>
</g>
<!-- 22&#45;&gt;23 -->
<g id="edge23" class="edge">
<title>22&#45;&gt;23</title>
<path fill="none" stroke="black" d="M131.21,-487.29C130.67,-475.64 129.94,-459.93 129.32,-446.4"/>
<polygon fill="black" stroke="black" points="132.83,-446.57 128.87,-436.74 125.84,-446.89 132.83,-446.57"/>
<text xml:space="preserve" text-anchor="middle" x="133.73" y="-456.08" font-family="Times,serif" font-size="14.00">u</text>
</g>
<!-- 24 -->
<g id="node23" class="node">
<title>24</title>
<ellipse fill="none" stroke="black" cx="128" cy="-328.38" rx="18" ry="18"/>
</g>
<!-- 23&#45;&gt;24 -->
<g id="edge24" class="edge">
<title>23&#45;&gt;24</title>
<path fill="none" stroke="black" d="M128,-398.79C128,-387.14 128,-371.43 128,-357.9"/>
<polygon fill="black" stroke="black" points="131.5,-358.24 128,-348.24 124.5,-358.24 131.5,-358.24"/>
<text xml:space="preserve" text-anchor="middle" x="131" y="-367.58" font-family="Times,serif" font-size="14.00">a</text>
</g>
<!-- 25 -->
<g id="node24" class="node">
<title>25</title>
<ellipse fill="none" stroke="black" cx="125" cy="-239.88" rx="18" ry="18"/>
</g>
<!-- 24&#45;&gt;25 -->
<g id="edge25" class="edge">
<title>24&#45;&gt;25</title>
<path fill="none" stroke="black" d="M127.41,-310.29C127,-298.64 126.46,-282.93 125.99,-269.4"/>
<polygon fill="black" stroke="black" points="129.5,-269.62 125.65,-259.74 122.5,-269.86 129.5,-269.62"/>
<text xml:space="preserve" text-anchor="middle" x="129.02" y="-279.08" font-family="Times,serif" font-size="14.00">r</text>
</g>
<!-- 26 -->
<g id="node25" class="node">
<title>26</title>
<ellipse fill="none" stroke="black" cx="121" cy="-123.19" rx="22.69" ry="22.69"/>
<ellipse fill="none" stroke="black" cx="121" cy="-123.19" rx="26.69" ry="26.69"/>
<text xml:space="preserve" text-anchor="middle" x="121" y="-118.14" font-family="Times,serif" font-size="14.00">0,1</text>
</g>
<!-- 25&#45;&gt;26 -->
<g id="edge26" class="edge">
<title>25&#45;&gt;26</title>
<path fill="none" stroke="black" d="M124.39,-221.46C123.84,-205.64 123.01,-181.77 122.31,-161.64"/>
<polygon fill="black" stroke="black" points="125.81,-161.69 121.96,-151.82 118.81,-161.94 125.81,-161.69"/>
<text xml:space="preserve" text-anchor="middle" x="127.08" y="-180.83" font-family="Times,serif" font-size="14.00">y</text>
</g>
<!-- 28 -->
<g id="node27" class="node">
<title>28</title>
<ellipse fill="none" stroke="black" cx="228" cy="-505.38" rx="18" ry="18"/>
</g>
<!-- 27&#45;&gt;28 -->
<g id="edge28" class="edge">
<title>27&#45;&gt;28</title>
<path fill="none" stroke="black" d="M225.48,-595.35C225.94,-579.14 226.64,-554.44 227.19,-535.17"/>
<polygon fill="black" stroke="black" points="230.68,-535.33 227.47,-525.23 223.68,-535.13 230.68,-535.33"/>
<text xml:space="preserve" text-anchor="middle" x="234.82" y="-554.33" font-family="Times,serif" font-size="14.00">a|1</text>
</g>
<!-- 34 -->
<g id="node32" class="node">
<title>34</title>
<ellipse fill="none" stroke="black" cx="182" cy="-239.88" rx="18" ry="18"/>
</g>
<!-- 27&#45;&gt;34 -->
<g id="edge34" class="edge">
<title>27&#45;&gt;34</title>
<path fill="none" stroke="black" d="M215.03,-598.04C202.32,-578.33 182,-541.33 182,-506.38 182,-506.38 182,-506.38 182,-327.38 182,-308.05 182,-286.28 182,-269.42"/>
<polygon fill="black" stroke="black" points="185.5,-269.63 182,-259.63 178.5,-269.63 185.5,-269.63"/>
<text xml:space="preserve" text-anchor="middle" x="185.38" y="-411.83" font-family="Times,serif" font-size="14.00">u</text>
</g>
<!-- 29 -->
<g id="node28" class="node">
<title>29</title>
<ellipse fill="none" stroke="black" cx="228" cy="-416.88" rx="18" ry="18"/>
</g>
<!-- 28&#45;&gt;29 -->
<g id="edge29" class="edge">
<title>28&#45;&gt;29</title>
<path fill="none" stroke="black" d="M228,-487.29C228,-475.64 228,-459.93 228,-446.4"/>
<polygon fill="black" stroke="black" points="231.5,-446.74 228,-436.74 224.5,-446.74 231.5,-446.74"/>
<text xml:space="preserve" text-anchor="middle" x="231.38" y="-456.08" font-family="Times,serif" font-size="14.00">n</text>
</g>
<!-- 30 -->
<g id="node29" class="node">
<title>30</title>
<ellipse fill="none" stroke="black" cx="237" cy="-328.38" rx="18" ry="18"/>
</g>
<!-- 29&#45;&gt;30 -->
<g id="edge30" class="edge">
<title>29&#45;&gt;30</title>
<path fill="none" stroke="black" d="M229.78,-398.79C230.99,-387.14 232.63,-371.43 234.03,-357.9"/>
<polygon fill="black" stroke="black" points="237.48,-358.54 235.04,-348.24 230.52,-357.82 237.48,-358.54"/>
<text xml:space="preserve" text-anchor="middle" x="236.68" y="-367.58" font-family="Times,serif" font-size="14.00">u</text>
</g>
<!-- 31 -->
<g id="node30" class="node">
<title>31</title>
<ellipse fill="none" stroke="black" cx="237" cy="-239.88" rx="18" ry="18"/>
</g>
<!-- 30&#45;&gt;31 -->
<g id="edge31" class="edge">
<title>30&#45;&gt;31</title>
<path fill="none" stroke="black" d="M237,-310.29C237,-298.64 237,-282.93 237,-269.4"/>
<polygon fill="black" stroke="black" points="240.5,-269.74 237,-259.74 233.5,-269.74 240.5,-269.74"/>
<text xml:space="preserve" text-anchor="middle" x="240" y="-279.08" font-family="Times,serif" font-size="14.00">a</text>
</g>
<!-- 32 -->
<g id="node31" class="node">
<title>32</title>
<ellipse fill="none" stroke="black" cx="238" cy="-123.19" rx="18" ry="18"/>
</g>
<!-- 31&#45;&gt;32 -->
<g id="edge32" class="edge">
<title>31&#45;&gt;32</title>
<path fill="none" stroke="black" d="M237.15,-221.46C237.31,-203.25 237.56,-174.38 237.75,-152.81"/>
<polygon fill="black" stroke="black" points="241.25,-152.94 237.84,-142.91 234.25,-152.88 241.25,-152.94"/>
<text xml:space="preserve" text-anchor="middle" x="239.87" y="-180.83" font-family="Times,serif" font-size="14.00">r</text>
</g>
<!-- 32&#45;&gt;5 -->
<g id="edge33" class="edge">
<title>32&#45;&gt;5</title>
<path fill="none" stroke="black" d="M238,-104.91C238,-91.33 238,-72.03 238,-55.58"/>
<polygon fill="black" stroke="black" points="241.5,-55.73 238,-45.73 234.5,-55.73 241.5,-55.73"/>
<text xml:space="preserve" text-anchor="middle" x="241.38" y="-65.2" font-family="Times,serif" font-size="14.00">y</text>
</g>
<!-- 34&#45;&gt;32 -->
<g id="edge35" class="edge">
<title>34&#45;&gt;32</title>
<path fill="none" stroke="black" d="M189.55,-223.41C198.74,-204.6 214.38,-172.57 225.4,-150"/>
<polygon fill="black" stroke="black" points="228.48,-151.66 229.72,-141.14 222.19,-148.59 228.48,-151.66"/>
<text xml:space="preserve" text-anchor="middle" x="223.41" y="-180.83" font-family="Times,serif" font-size="14.00">l|1</text>
</g>
<!-- 37 -->
<g id="node33" class="node">
<title>37</title>
<ellipse fill="none" stroke="black" cx="184" cy="-123.19" rx="18" ry="18"/>
</g>
<!-- 34&#45;&gt;37 -->
<g id="edge36" class="edge">
<title>34&#45;&gt;37</title>
<path fill="none" stroke="black" d="M180.39,-221.81C179.92,-216.11 179.48,-209.73 179.25,-203.88 178.62,-187.89 178.38,-183.86 179.25,-167.88 179.52,-162.91 179.96,-157.63 180.47,-152.53"/>
<polygon fill="black" stroke="black" points="183.94,-153 181.56,-142.67 176.98,-152.23 183.94,-153"/>
<text xml:space="preserve" text-anchor="middle" x="182.62" y="-180.83" font-family="Times,serif" font-size="14.00">n</text>
</g>
<!-- 37&#45;&gt;5 -->
<g id="edge37" class="edge">
<title>37&#45;&gt;5</title>
<path fill="none" stroke="black" d="M192.2,-107.13C200.14,-92.54 212.39,-70.04 222.23,-51.98"/>
<polygon fill="black" stroke="black" points="225.25,-53.73 226.96,-43.28 219.11,-50.39 225.25,-53.73"/>
<text xml:space="preserve" text-anchor="middle" x="218.84" y="-65.2" font-family="Times,serif" font-size="14.00">e</text>
</g>
<!-- 40 -->
<g id="node35" class="node">
<title>40</title>
<ellipse fill="none" stroke="black" cx="292" cy="-328.38" rx="18" ry="18"/>
</g>
<!-- 39&#45;&gt;40 -->
<g id="edge39" class="edge">
<title>39&#45;&gt;40</title>
<path fill="none" stroke="black" d="M272.53,-757.12C273.12,-736.15 274,-699.67 274,-668.38 274,-668.38 274,-668.38 274,-415.88 274,-395.69 278.76,-373.39 283.38,-356.5"/>
<polygon fill="black" stroke="black" points="286.65,-357.78 286.08,-347.21 279.93,-355.83 286.65,-357.78"/>
<text xml:space="preserve" text-anchor="middle" x="277" y="-554.33" font-family="Times,serif" font-size="14.00">a</text>
</g>
<!-- 40&#45;&gt;5 -->
<g id="edge43" class="edge">
<title>40&#45;&gt;5</title>
<path fill="none" stroke="black" d="M299.95,-311.86C306.54,-298.09 315.38,-277.22 319,-257.88 332.21,-187.38 348.05,-162.08 319,-96.5 308.31,-72.36 285.34,-52.77 266.59,-39.9"/>
<polygon fill="black" stroke="black" points="268.53,-36.99 258.25,-34.45 264.7,-42.85 268.53,-36.99"/>
<text xml:space="preserve" text-anchor="middle" x="338.63" y="-180.83" font-family="Times,serif" font-size="14.00">y</text>
</g>
<!-- 41 -->
<g id="node36" class="node">
<title>41</title>
<ellipse fill="none" stroke="black" cx="292" cy="-239.88" rx="18" ry="18"/>
</g>
<!-- 40&#45;&gt;41 -->
<g id="edge40" class="edge">
<title>40&#45;&gt;41</title>
<path fill="none" stroke="black" d="M292,-310.29C292,-298.64 292,-282.93 292,-269.4"/>
<polygon fill="black" stroke="black" points="295.5,-269.74 292,-259.74 288.5,-269.74 295.5,-269.74"/>
<text xml:space="preserve" text-anchor="middle" x="294.25" y="-279.08" font-family="Times,serif" font-size="14.00">r</text>
</g>
<!-- 42 -->
<g id="node37" class="node">
<title>42</title>
<ellipse fill="none" stroke="black" cx="292" cy="-123.19" rx="18" ry="18"/>
</g>
<!-- 41&#45;&gt;42 -->
<g id="edge41" class="edge">
<title>41&#45;&gt;42</title>
<path fill="none" stroke="black" d="M292,-221.46C292,-203.25 292,-174.38 292,-152.81"/>
<polygon fill="black" stroke="black" points="295.5,-152.91 292,-142.91 288.5,-152.91 295.5,-152.91"/>
<text xml:space="preserve" text-anchor="middle" x="295" y="-180.83" font-family="Times,serif" font-size="14.00">c</text>
</g>
<!-- 42&#45;&gt;5 -->
<g id="edge42" class="edge">
<title>42&#45;&gt;5</title>
<path fill="none" stroke="black" d="M283.8,-107.13C275.86,-92.54 263.61,-70.04 253.77,-51.98"/>
<polygon fill="black" stroke="black" points="256.89,-50.39 249.04,-43.28 250.75,-53.73 256.89,-50.39"/>
<text xml:space="preserve" text-anchor="middle" x="269.99" y="-65.2" font-family="Times,serif" font-size="14.00">h</text>
</g>
<!-- 46 -->
<g id="node39" class="node">
<title>46</title>
<ellipse fill="none" stroke="black" cx="370" cy="-667.38" rx="18" ry="18"/>
</g>
<!-- 45&#45;&gt;46 -->
<g id="edge45" class="edge">
<title>45&#45;&gt;46</title>
<path fill="none" stroke="black" d="M363.76,-810.95C364.96,-783.54 367.3,-730.07 368.75,-696.97"/>
<polygon fill="black" stroke="black" points="372.23,-697.44 369.17,-687.3 365.24,-697.14 372.23,-697.44"/>
<text xml:space="preserve" text-anchor="middle" x="369.43" y="-770.33" font-family="Times,serif" font-size="14.00">o</text>
</g>
<!-- 46&#45;&gt;13 -->
<g id="edge46" class="edge">
<title>46&#45;&gt;13</title>
<path fill="none" stroke="black" d="M370.54,-648.95C371.4,-621.54 373.07,-568.07 374.11,-534.97"/>
<polygon fill="black" stroke="black" points="377.59,-535.4 374.41,-525.3 370.6,-535.18 377.59,-535.4"/>
<text xml:space="preserve" text-anchor="middle" x="375.55" y="-608.33" font-family="Times,serif" font-size="14.00">v</text>
</g>
<!-- 54 -->
<g id="node41" class="node">
<title>54</title>
<ellipse fill="none" stroke="black" cx="467" cy="-721.38" rx="18" ry="18"/>
</g>
<!-- 53&#45;&gt;54 -->
<g id="edge48" class="edge">
<title>53&#45;&gt;54</title>
<path fill="none" stroke="black" d="M470.36,-811.35C469.75,-795.14 468.81,-770.44 468.09,-751.17"/>
<polygon fill="black" stroke="black" points="471.59,-751.09 467.71,-741.23 464.59,-751.36 471.59,-751.09"/>
<text xml:space="preserve" text-anchor="middle" x="472.59" y="-770.33" font-family="Times,serif" font-size="14.00">c</text>
</g>
<!-- 55 -->
<g id="node42" class="node">
<title>55</title>
<ellipse fill="none" stroke="black" cx="456" cy="-559.38" rx="18" ry="18"/>
</g>
<!-- 54&#45;&gt;55 -->
<g id="edge49" class="edge">
<title>54&#45;&gt;55</title>
<path fill="none" stroke="black" d="M465.8,-702.95C463.92,-675.54 460.24,-622.07 457.97,-588.97"/>
<polygon fill="black" stroke="black" points="461.48,-589.03 457.3,-579.3 454.49,-589.51 461.48,-589.03"/>
<text xml:space="preserve" text-anchor="middle" x="466.3" y="-662.33" font-family="Times,serif" font-size="14.00">t</text>
</g>
<!-- 55&#45;&gt;15 -->
<g id="edge50" class="edge">
<title>55&#45;&gt;15</title>
<path fill="none" stroke="black" d="M451.91,-541.51C443.47,-507.51 422.91,-428.52 399,-364.38 397.93,-361.52 396.76,-358.55 395.56,-355.6"/>
<polygon fill="black" stroke="black" points="398.9,-354.52 391.79,-346.67 392.46,-357.25 398.9,-354.52"/>
<text xml:space="preserve" text-anchor="middle" x="436" y="-456.08" font-family="Times,serif" font-size="14.00">o</text>
</g>
<!-- 61 -->
<g id="node44" class="node">
<title>61</title>
<ellipse fill="none" stroke="black" cx="320" cy="-721.38" rx="18" ry="18"/>
</g>
<!-- 60&#45;&gt;61 -->
<g id="edge52" class="edge">
<title>60&#45;&gt;61</title>
<path fill="none" stroke="black" d="M310.77,-811.35C312.45,-795.14 315.01,-770.44 317.01,-751.17"/>
<polygon fill="black" stroke="black" points="320.49,-751.53 318.04,-741.23 313.53,-750.81 320.49,-751.53"/>
<text xml:space="preserve" text-anchor="middle" x="319.13" y="-770.33" font-family="Times,serif" font-size="14.00">e</text>
</g>
<!-- 62 -->
<g id="node45" class="node">
<title>62</title>
<ellipse fill="none" stroke="black" cx="320" cy="-613.38" rx="18" ry="18"/>
</g>
<!-- 61&#45;&gt;62 -->
<g id="edge53" class="edge">
<title>61&#45;&gt;62</title>
<path fill="none" stroke="black" d="M320,-703.35C320,-687.14 320,-662.44 320,-643.17"/>
<polygon fill="black" stroke="black" points="323.5,-643.23 320,-633.23 316.5,-643.23 323.5,-643.23"/>
<text xml:space="preserve" text-anchor="middle" x="323.38" y="-662.33" font-family="Times,serif" font-size="14.00">p</text>
</g>
<!-- 62&#45;&gt;13 -->
<g id="edge54" class="edge">
<title>62&#45;&gt;13</title>
<path fill="none" stroke="black" d="M327.83,-596.82C335.12,-582.41 346.31,-560.39 356.25,-541.38 357.89,-538.24 359.63,-534.96 361.36,-531.71"/>
<polygon fill="black" stroke="black" points="364.38,-533.48 366.01,-523.01 358.2,-530.18 364.38,-533.48"/>
<text xml:space="preserve" text-anchor="middle" x="358.12" y="-554.33" font-family="Times,serif" font-size="14.00">t</text>
</g>
</g>
</svg>
