<?xml version="1.0" encoding="UTF-8" standalone="no"?>
<!DOCTYPE svg PUBLIC "-//W3C//DTD SVG 1.1//EN"
 "http://www.w3.org/Graphics/SVG/1.1/DTD/svg11.dtd">
<!-- Generated by graphviz version 13.0.1 (20250615.1724)
 -->
<!-- Title: FST Pages: 1 -->
<svg width="496pt" height="944pt"
 viewBox="0.00 0.00 496.00 944.00" xmlns="http://www.w3.org/2000/svg" xmlns:xlink="http://www.w3.org/1999/xlink">
<g id="graph0" class="graph" transform="scale(1 1) rotate(0) translate(4 939.88)">
<title>FST</title>
<polygon fill="white" stroke="none" points="-4,4 -4,-939.88 492,-939.88 492,4 -4,4"/>
<!-- 0 -->
<g id="node1" class="node">
<title>0</title>
<ellipse fill="none" stroke="black" cx="288" cy="-917.88" rx="18" ry="18"/>
</g>
<!-- 1 -->
<g id="node2" class="node">
<title>1</title>
<ellipse fill="none" stroke="black" cx="72" cy="-505.38" rx="18" ry="18"/>
</g>
<!-- 0&#45;&gt;1 -->
<g id="edge1" class="edge">
<title>0&#45;&gt;1</title>
<path fill="none" stroke="black" d="M269.72,-917.27C219.99,-917.28 86,-909.92 86,-830.38 86,-830.38 86,-830.38 86,-612.38 86,-585.72 81.59,-555.61 77.73,-534.32"/>
<polygon fill="black" stroke="black" points="81.2,-533.84 75.89,-524.67 74.32,-535.14 81.2,-533.84"/>
<text xml:space="preserve" text-anchor="middle" x="95.75" y="-716.33" font-family="Times,serif" font-size="14.00">A|3</text>
</g>
<!-- 11 -->
<g id="node11" class="node">
<title>11</title>
<ellipse fill="none" stroke="black" cx="416" cy="-829.38" rx="18" ry="18"/>
</g>
<!-- 0&#45;&gt;11 -->
<g id="edge11" class="edge">
<title>0&#45;&gt;11</title>
<path fill="none" stroke="black" d="M305.38,-912.09C323.03,-906.67 350.59,-896.63 371,-881.88 381.79,-874.08 391.77,-863.23 399.57,-853.5"/>
<polygon fill="black" stroke="black" points="402.12,-855.92 405.42,-845.85 396.56,-851.67 402.12,-855.92"/>
<text xml:space="preserve" text-anchor="middle" x="402.19" y="-868.58" font-family="Times,serif" font-size="14.00">D|31</text>
</g>
<!-- 19 -->
<g id="node18" class="node">
<title>19</title>
<ellipse fill="none" stroke="black" cx="178" cy="-829.38" rx="18" ry="18"/>
</g>
<!-- 0&#45;&gt;19 -->
<g id="edge19" class="edge">
<title>0&#45;&gt;19</title>
<path fill="none" stroke="black" d="M269.88,-915.11C248.45,-912.05 213.14,-903.82 192.75,-881.88 186.9,-875.58 183.35,-867.12 181.2,-858.87"/>
<polygon fill="black" stroke="black" points="184.65,-858.24 179.3,-849.1 177.77,-859.58 184.65,-858.24"/>
<text xml:space="preserve" text-anchor="middle" x="201.38" y="-868.58" font-family="Times,serif" font-size="14.00">F|2</text>
</g>
<!-- 27 -->
<g id="node26" class="node">
<title>27</title>
<ellipse fill="none" stroke="black" cx="224" cy="-613.38" rx="18" ry="18"/>
</g>
<!-- 0&#45;&gt;27 -->
<g id="edge27" class="edge">
<title>0&#45;&gt;27</title>
<path fill="none" stroke="black" d="M274.62,-905.35C267.94,-899 260.21,-890.64 255,-881.88 233.85,-846.3 232.75,-834.22 226,-793.38 217.34,-740.99 219.35,-678.8 221.64,-643.23"/>
<polygon fill="black" stroke="black" points="225.13,-643.54 222.34,-633.32 218.14,-643.05 225.13,-643.54"/>
<text xml:space="preserve" text-anchor="middle" x="233.5" y="-770.33" font-family="Times,serif" font-size="14.00">J|3</text>
</g>
<!-- 39 -->
<g id="node34" class="node">
<title>39</title>
<ellipse fill="none" stroke="black" cx="268" cy="-775.38" rx="18" ry="18"/>
</g>
<!-- 0&#45;&gt;39 -->
<g id="edge38" class="edge">
<title>0&#45;&gt;39</title>
<path fill="none" stroke="black" d="M276,-904.35C270.86,-898.11 265.42,-890.15 262.75,-881.88 254.57,-856.56 257.35,-826.04 261.29,-804.36"/>
<polygon fill="black" stroke="black" points="264.68,-805.29 263.24,-794.79 257.82,-803.89 264.68,-805.29"/>
<text xml:space="preserve" text-anchor="middle" x="277.38" y="-868.58" font-family="Times,serif" font-size="14.00">M|31</text>
</g>
<!-- 45 -->
<g id="node38" class="node">
<title>45</title>
<ellipse fill="none" stroke="black" cx="362" cy="-829.38" rx="18" ry="18"/>
</g>
<!-- 0&#45;&gt;45 -->
<g id="edge44" class="edge">
<title>0&#45;&gt;45</title>
<path fill="none" stroke="black" d="M302.17,-906.05C310.23,-899.53 320.23,-890.78 328,-881.88 335.09,-873.76 341.86,-864.07 347.47,-855.29"/>
<polygon fill="black" stroke="black" points="350.4,-857.2 352.67,-846.85 344.44,-853.53 350.4,-857.2"/>
<text xml:space="preserve" text-anchor="middle" x="353.56" y="-868.58" font-family="Times,serif" font-size="14.00">N|30</text>
</g>
<!-- 53 -->
<g id="node40" class="node">
<title>53</title>
<ellipse fill="none" stroke="black" cx="470" cy="-829.38" rx="18" ry="18"/>
</g>
<!-- 0&#45;&gt;53 -->
<g id="edge47" class="edge">
<title>0&#45;&gt;53</title>
<path fill="none" stroke="black" d="M306.09,-915.08C332.47,-911.81 382.35,-903.14 419,-881.88 431.8,-874.46 443.59,-862.99 452.61,-852.76"/>
<polygon fill="black" stroke="black" points="455.06,-855.29 458.81,-845.38 449.7,-850.79 455.06,-855.29"/>
<text xml:space="preserve" text-anchor="middle" x="452.58" y="-868.58" font-family="Times,serif" font-size="14.00">O|31</text>
</g>
<!-- 60 -->
<g id="node43" class="node">
<title>60</title>
<ellipse fill="none" stroke="black" cx="308" cy="-829.38" rx="18" ry="18"/>
</g>
<!-- 0&#45;&gt;60 -->
<g id="edge51" class="edge">
<title>0&#45;&gt;60</title>
<path fill="none" stroke="black" d="M291.86,-900.2C294.61,-888.31 298.37,-872.05 301.57,-858.21"/>
<polygon fill="black" stroke="black" points="304.9,-859.31 303.75,-848.78 298.08,-857.73 304.9,-859.31"/>
<text xml:space="preserve" text-anchor="middle" x="311.79" y="-868.58" font-family="Times,serif" font-size="14.00">S|30</text>
</g>
<!-- 2 -->
<g id="node3" class="node">
<title>2</title>
<ellipse fill="none" stroke="black" cx="18" cy="-416.88" rx="18" ry="18"/>
</g>
<!-- 1&#45;&gt;2 -->
<g id="edge2" class="edge">
<title>1&#45;&gt;2</title>
<path fill="none" stroke="black" d="M62.84,-489.71C54.69,-476.66 42.63,-457.33 33.06,-442.01"/>
<polygon fill="black" stroke="black" points="36.27,-440.54 28.01,-433.91 30.33,-444.25 36.27,-440.54"/>
<text xml:space="preserve" text-anchor="middle" x="58.09" y="-456.08" font-family="Times,serif" font-size="14.00">p|0</text>
</g>
<!-- 6 -->
<g id="node7" class="node">
<title>6</title>
<ellipse fill="none" stroke="black" cx="72" cy="-416.88" rx="18" ry="18"/>
</g>
<!-- 1&#45;&gt;6 -->
<g id="edge6" class="edge">
<title>1&#45;&gt;6</title>
<path fill="none" stroke="black" d="M72,-487.29C72,-475.64 72,-459.93 72,-446.4"/>
<polygon fill="black" stroke="black" points="75.5,-446.74 72,-436.74 68.5,-446.74 75.5,-446.74"/>
<text xml:space="preserve" text-anchor="middle" x="80.25" y="-456.08" font-family="Times,serif" font-size="14.00">u|1</text>
</g>
<!-- 3 -->
<g id="node4" class="node">
<title>3</title>
<ellipse fill="none" stroke="black" cx="18" cy="-328.38" rx="18" ry="18"/>
</g>
<!-- 2&#45;&gt;3 -->
<g id="edge3" class="edge">
<title>2&#45;&gt;3</title>
<path fill="none" stroke="black" d="M18,-398.79C18,-387.14 18,-371.43 18,-357.9"/>
<polygon fill="black" stroke="black" points="21.5,-358.24 18,-348.24 14.5,-358.24 21.5,-358.24"/>
<text xml:space="preserve" text-anchor="middle" x="20.25" y="-367.58" font-family="Times,serif" font-size="14.00">r</text>
</g>
<!-- 4 -->
<g id="node5" class="node">
<title>4</title>
<ellipse fill="none" stroke="black" cx="18" cy="-185.88" rx="18" ry="18"/>
</g>
<!-- 3&#45;&gt;4 -->
<g id="edge4" class="edge">
<title>3&#45;&gt;4</title>
<path fill="none" stroke="black" d="M18,-310.15C18,-286.56 18,-243.88 18,-215.46"/>
<polygon fill="black" stroke="black" points="21.5,-215.76 18,-205.76 14.5,-215.76 21.5,-215.76"/>
<text xml:space="preserve" text-anchor="middle" x="19.88" y="-279.08" font-family="Times,serif" font-size="14.00">i</text>
</g>
<!-- 5 -->
<g id="node6" class="node">
<title>5</title>
<ellipse fill="none" stroke="black" cx="238" cy="-22" rx="18" ry="18"/>
<ellipse fill="none" stroke="black" cx="238" cy="-22" rx="22" ry="22"/>
</g>
<!-- 4&#45;&gt;5 -->
<g id="edge5" class="edge">
<title>4&#45;&gt;5</title>
<path fill="none" stroke="black" d="M14.95,-167.72C12.53,-148.41 11.73,-117.07 27.25,-96.5 69.2,-40.89 156.16,-27.14 204.22,-23.88"/>
<polygon fill="black" stroke="black" points="204.25,-27.38 214.04,-23.34 203.87,-20.39 204.25,-27.38"/>
<text xml:space="preserve" text-anchor="middle" x="29.12" y="-118.14" font-family="Times,serif" font-size="14.00">l</text>
</g>
<!-- 7 -->
<g id="node8" class="node">
<title>7</title>
<ellipse fill="none" stroke="black" cx="72" cy="-328.38" rx="18" ry="18"/>
</g>
<!-- 6&#45;&gt;7 -->
<g id="edge7" class="edge">
<title>6&#45;&gt;7</title>
<path fill="none" stroke="black" d="M72,-398.79C72,-387.14 72,-371.43 72,-357.9"/>
<polygon fill="black" stroke="black" points="75.5,-358.24 72,-348.24 68.5,-358.24 75.5,-358.24"/>
<text xml:space="preserve" text-anchor="middle" x="75.38" y="-367.58" font-family="Times,serif" font-size="14.00">g</text>
</g>
<!-- 8 -->
<g id="node9" class="node">
<title>8</title>
<ellipse fill="none" stroke="black" cx="68" cy="-239.88" rx="18" ry="18"/>
</g>
<!-- 7&#45;&gt;8 -->
<g id="edge8" class="edge">
<title>7&#45;&gt;8</title>
<path fill="none" stroke="black" d="M71.21,-310.29C70.67,-298.64 69.94,-282.93 69.32,-269.4"/>
<polygon fill="black" stroke="black" points="72.83,-269.57 68.87,-259.74 65.84,-269.89 72.83,-269.57"/>
<text xml:space="preserve" text-anchor="middle" x="73.73" y="-279.08" font-family="Times,serif" font-size="14.00">u</text>
</g>
<!-- 9 -->
<g id="node10" class="node">
<title>9</title>
<ellipse fill="none" stroke="black" cx="58" cy="-123.19" rx="18" ry="18"/>
</g>
<!-- 8&#45;&gt;9 -->
<g id="edge9" class="edge">
<title>8&#45;&gt;9</title>
<path fill="none" stroke="black" d="M66.48,-221.46C64.89,-203.25 62.38,-174.38 60.5,-152.81"/>
<polygon fill="black" stroke="black" points="63.99,-152.56 59.63,-142.91 57.01,-153.17 63.99,-152.56"/>
<text xml:space="preserve" text-anchor="middle" x="67.39" y="-180.83" font-family="Times,serif" font-size="14.00">s</text>
</g>
<!-- 9&#45;&gt;5 -->
<g id="edge10" class="edge">
<title>9&#45;&gt;5</title>
<path fill="none" stroke="black" d="M69.93,-109.29C74.39,-104.9 79.68,-100.18 85,-96.5 124.16,-69.47 174.78,-47.3 206.84,-34.61"/>
<polygon fill="black" stroke="black" points="207.88,-37.96 215.94,-31.07 205.35,-31.43 207.88,-37.96"/>
<text xml:space="preserve" text-anchor="middle" x="143.18" y="-65.2" font-family="Times,serif" font-size="14.00">t</text>
</g>
<!-- 12 -->
<g id="node12" class="node">
<title>12</title>
<ellipse fill="none" stroke="black" cx="416" cy="-667.38" rx="18" ry="18"/>
</g>
<!-- 11&#45;&gt;12 -->
<g id="edge12" class="edge">
<title>11&#45;&gt;12</title>
<path fill="none" stroke="black" d="M416,-810.95C416,-783.54 416,-730.07 416,-696.97"/>
<polygon fill="black" stroke="black" points="419.5,-697.3 416,-687.3 412.5,-697.3 419.5,-697.3"/>
<text xml:space="preserve" text-anchor="middle" x="419" y="-770.33" font-family="Times,serif" font-size="14.00">e</text>
</g>
<!-- 13 -->
<g id="node13" class="node">
<title>13</title>
<ellipse fill="none" stroke="black" cx="376" cy="-505.38" rx="18" ry="18"/>
</g>
<!-- 12&#45;&gt;13 -->
<g id="edge13" class="edge">
<title>12&#45;&gt;13</title>
<path fill="none" stroke="black" d="M412.78,-649.25C408.09,-625.03 398.76,-579.48 388,-541.38 387.26,-538.77 386.44,-536.07 385.59,-533.38"/>
<polygon fill="black" stroke="black" points="388.97,-532.45 382.47,-524.08 382.33,-534.67 388.97,-532.45"/>
<text xml:space="preserve" text-anchor="middle" x="412.06" y="-608.33" font-family="Times,serif" font-size="14.00">c</text>
</g>
<!-- 14 -->
<g id="node14" class="node">
<title>14</title>
<ellipse fill="none" stroke="black" cx="377" cy="-416.88" rx="18" ry="18"/>
</g>
<!-- 13&#45;&gt;14 -->
<g id="edge14" class="edge">
<title>13&#45;&gt;14</title>
<path fill="none" stroke="black" d="M376.2,-487.29C376.33,-475.64 376.51,-459.93 376.67,-446.4"/>
<polygon fill="black" stroke="black" points="380.17,-446.78 376.78,-436.74 373.17,-446.7 380.17,-446.78"/>
<text xml:space="preserve" text-anchor="middle" x="379.59" y="-456.08" font-family="Times,serif" font-size="14.00">e</text>
</g>
<!-- 15 -->
<g id="node15" class="node">
<title>15</title>
<ellipse fill="none" stroke="black" cx="384" cy="-328.38" rx="18" ry="18"/>
</g>
<!-- 14&#45;&gt;15 -->
<g id="edge15" class="edge">
<title>14&#45;&gt;15</title>
<path fill="none" stroke="black" d="M378.38,-398.79C379.33,-387.14 380.6,-371.43 381.69,-357.9"/>
<polygon fill="black" stroke="black" points="385.16,-358.49 382.47,-348.24 378.18,-357.92 385.16,-358.49"/>
<text xml:space="preserve" text-anchor="middle" x="386.75" y="-367.58" font-family="Times,serif" font-size="14.00">m</text>
</g>
<!-- 16 -->
<g id="node16" class="node">
<title>16</title>
<ellipse fill="none" stroke="black" cx="384" cy="-239.88" rx="18" ry="18"/>
</g>
<!-- 15&#45;&gt;16 -->
<g id="edge16" class="edge">
<title>15&#45;&gt;16</title>
<path fill="none" stroke="black" d="M384,-310.29C384,-298.64 384,-282.93 384,-269.4"/>
<polygon fill="black" stroke="black" points="387.5,-269.74 384,-259.74 380.5,-269.74 387.5,-269.74"/>
<text xml:space="preserve" text-anchor="middle" x="387.38" y="-279.08" font-family="Times,serif" font-size="14.00">b</text>
</g>
<!-- 17 -->
<g id="node17" class="node">
<title>17</title>
<ellipse fill="none" stroke="black" cx="384" cy="-123.19" rx="18" ry="18"/>
</g>
<!-- 16&#45;&gt;17 -->
<g id="edge17" class="edge">
<title>16&#45;&gt;17</title>
<path fill="none" stroke="black" d="M384,-221.46C384,-203.25 384,-174.38 384,-152.81"/>
<polygon fill="black" stroke="black" points="387.5,-152.91 384,-142.91 380.5,-152.91 387.5,-152.91"/>
<text xml:space="preserve" text-anchor="middle" x="387" y="-180.83" font-family="Times,serif" font-size="14.00">e</text>
</g>
<!-- 17&#45;&gt;5 -->
<g id="edge18" class="edge">
<title>17&#45;&gt;5</title>
<path fill="none" stroke="black" d="M378.94,-105.43C374.06,-91.95 365.42,-73.44 352,-62 329.05,-42.44 295.79,-32.54 271.12,-27.63"/>
<polygon fill="black" stroke="black" points="272.07,-24.24 261.61,-25.91 270.83,-31.13 272.07,-24.24"/>
<text xml:space="preserve" text-anchor="middle" x="367.47" y="-65.2" font-family="Times,serif" font-size="14.00">r</text>
</g>
<!-- 20 -->
<g id="node19" class="node">
<title>20</title>
<ellipse fill="none" stroke="black" cx="175" cy="-721.38" rx="18" ry="18"/>
</g>
<!-- 19&#45;&gt;20 -->
<g id="edge20" class="edge">
<title>19&#45;&gt;20</title>
<path fill="none" stroke="black" d="M177.52,-811.35C177.06,-795.14 176.36,-770.44 175.81,-751.17"/>
<polygon fill="black" stroke="black" points="179.32,-751.13 175.53,-741.23 172.32,-751.33 179.32,-751.13"/>
<text xml:space="preserve" text-anchor="middle" x="179.94" y="-770.33" font-family="Times,serif" font-size="14.00">e</text>
</g>
<!-- 21 -->
<g id="node20" class="node">
<title>21</title>
<ellipse fill="none" stroke="black" cx="153" cy="-613.38" rx="18" ry="18"/>
</g>
<!-- 20&#45;&gt;21 -->
<g id="edge21" class="edge">
<title>20&#45;&gt;21</title>
<path fill="none" stroke="black" d="M171.47,-703.35C168.07,-686.97 162.86,-661.91 158.85,-642.55"/>
<polygon fill="black" stroke="black" points="162.29,-641.93 156.83,-632.85 155.44,-643.35 162.29,-641.93"/>
<text xml:space="preserve" text-anchor="middle" x="170.63" y="-662.33" font-family="Times,serif" font-size="14.00">b</text>
</g>
<!-- 22 -->
<g id="node21" class="node">
<title>22</title>
<ellipse fill="none" stroke="black" cx="130" cy="-505.38" rx="18" ry="18"/>
</g>
<!-- 21&#45;&gt;22 -->
<g id="edge22" class="edge">
<title>21&#45;&gt;22</title>
<path fill="none" stroke="black" d="M149.3,-595.35C145.75,-578.97 140.31,-553.91 136.11,-534.55"/>
<polygon fill="black" stroke="black" points="139.55,-533.88 134.01,-524.85 132.71,-535.36 139.55,-533.88"/>
<text xml:space="preserve" text-anchor="middle" x="147.15" y="-554.33" font-family="Times,serif" font-size="14.00">r</text>
</g>
<!-- 23 -->
<g id="node22" class="node">
<title>23</title>
<ellipse fill="none" stroke="black" cx="126" cy="-416.88" rx="18" ry="18"/>
</g>
<!-- 22&#45;&gt;23 -->
<g id="edge23" class="edge">
<title>22&#45;&gt;23</title>
<path fill="none" stroke="black" d="M129.21,-487.29C128.67,-475.64 127.94,-459.93 127.32,-446.4"/>
<polygon fill="black" stroke="black" points="130.83,-446.57 126.87,-436.74 123.84,-446.89 130.83,-446.57"/>
<text xml:space="preserve" text-anchor="middle" x="131.73" y="-456.08" font-family="Times,serif" font-size="14.00">u</text>
</g>
<!-- 24 -->
<g id="node23" class="node">
<title>24</title>
<ellipse fill="none" stroke="black" cx="126" cy="-328.38" rx="18" ry="18"/>
</g>
<!-- 23&#45;&gt;24 -->
<g id="edge24" class="edge">
<title>23&#45;&gt;24</title>
<path fill="none" stroke="black" d="M126,-398.79C126,-387.14 126,-371.43 126,-357.9"/>
<polygon fill="black" stroke="black" points="129.5,-358.24 126,-348.24 122.5,-358.24 129.5,-358.24"/>
<text xml:space="preserve" text-anchor="middle" x="129" y="-367.58" font-family="Times,serif" font-size="14.00">a</text>
</g>
<!-- 25 -->
<g id="node24" class="node">
<title>25</title>
<ellipse fill="none" stroke="black" cx="123" cy="-239.88" rx="18" ry="18"/>
</g>
<!-- 24&#45;&gt;25 -->
<g id="edge25" class="edge">
<title>24&#45;&gt;25</title>
<path fill="none" stroke="black" d="M125.41,-310.29C125,-298.64 124.46,-282.93 123.99,-269.4"/>
<polygon fill="black" stroke="black" points="127.5,-269.62 123.65,-259.74 120.5,-269.86 127.5,-269.62"/>
<text xml:space="preserve" text-anchor="middle" x="127.02" y="-279.08" font-family="Times,serif" font-size="14.00">r</text>
</g>
<!-- 26 -->
<g id="node25" class="node">
<title>26</title>
<ellipse fill="none" stroke="black" cx="121" cy="-123.19" rx="22.69" ry="22.69"/>
<ellipse fill="none" stroke="black" cx="121" cy="-123.19" rx="26.69" ry="26.69"/>
<text xml:space="preserve" text-anchor="middle" x="121" y="-118.14" font-family="Times,serif" font-size="14.00">8,9</text>
</g>
<!-- 25&#45;&gt;26 -->
<g id="edge26" class="edge">
<title>25&#45;&gt;26</title>
<path fill="none" stroke="black" d="M122.7,-221.46C122.42,-205.64 122,-181.77 121.65,-161.64"/>
<polygon fill="black" stroke="black" points="125.16,-161.76 121.48,-151.82 118.16,-161.88 125.16,-161.76"/>
<text xml:space="preserve" text-anchor="middle" x="125.73" y="-180.83" font-family="Times,serif" font-size="14.00">y</text>
</g>
<!-- 28 -->
<g id="node27" class="node">
<title>28</title>
<ellipse fill="none" stroke="black" cx="227" cy="-505.38" rx="18" ry="18"/>
</g>
<!-- 27&#45;&gt;28 -->
<g id="edge28" class="edge">
<title>27&#45;&gt;28</title>
<path fill="none" stroke="black" d="M224.48,-595.35C224.94,-579.14 225.64,-554.44 226.19,-535.17"/>
<polygon fill="black" stroke="black" points="229.68,-535.33 226.47,-525.23 222.68,-535.13 229.68,-535.33"/>
<text xml:space="preserve" text-anchor="middle" x="233.82" y="-554.33" font-family="Times,serif" font-size="14.00">a|1</text>
</g>
<!-- 34 -->
<g id="node32" class="node">
<title>34</title>
<ellipse fill="none" stroke="black" cx="181" cy="-239.88" rx="18" ry="18"/>
</g>
<!-- 27&#45;&gt;34 -->
<g id="edge34" class="edge">
<title>27&#45;&gt;34</title>
<path fill="none" stroke="black" d="M214.03,-598.04C201.32,-578.33 181,-541.33 181,-506.38 181,-506.38 181,-506.38 181,-327.38 181,-308.05 181,-286.28 181,-269.42"/>
<polygon fill="black" stroke="black" points="184.5,-269.63 181,-259.63 177.5,-269.63 184.5,-269.63"/>
<text xml:space="preserve" text-anchor="middle" x="184.38" y="-411.83" font-family="Times,serif" font-size="14.00">u</text>
</g>
<!-- 29 -->
<g id="node28" class="node">
<title>29</title>
<ellipse fill="none" stroke="black" cx="227" cy="-416.88" rx="18" ry="18"/>
</g>
<!-- 28&#45;&gt;29 -->
<g id="edge29" class="edge">
<title>28&#45;&gt;29</title>
<path fill="none" stroke="black" d="M227,-487.29C227,-475.64 227,-459.93 227,-446.4"/>
<polygon fill="black" stroke="black" points="230.5,-446.74 227,-436.74 223.5,-446.74 230.5,-446.74"/>
<text xml:space="preserve" text-anchor="middle" x="230.38" y="-456.08" font-family="Times,serif" font-size="14.00">n</text>
</g>
<!-- 30 -->
<g id="node29" class="node">
<title>30</title>
<ellipse fill="none" stroke="black" cx="233" cy="-328.38" rx="18" ry="18"/>
</g>
<!-- 29&#45;&gt;30 -->
<g id="edge30" class="edge">
<title>29&#45;&gt;30</title>
<path fill="none" stroke="black" d="M228.19,-398.79C228.99,-387.14 230.08,-371.43 231.02,-357.9"/>
<polygon fill="black" stroke="black" points="234.49,-358.46 231.69,-348.24 227.51,-357.97 234.49,-358.46"/>
<text xml:space="preserve" text-anchor="middle" x="233.91" y="-367.58" font-family="Times,serif" font-size="14.00">u</text>
</g>
<!-- 31 -->
<g id="node30" class="node">
<title>31</title>
<ellipse fill="none" stroke="black" cx="237" cy="-239.88" rx="18" ry="18"/>
</g>
<!-- 30&#45;&gt;31 -->
<g id="edge31" class="edge">
<title>30&#45;&gt;31</title>
<path fill="none" stroke="black" d="M233.79,-310.29C234.33,-298.64 235.06,-282.93 235.68,-269.4"/>
<polygon fill="black" stroke="black" points="239.16,-269.89 236.13,-259.74 232.17,-269.57 239.16,-269.89"/>
<text xml:space="preserve" text-anchor="middle" x="238.36" y="-279.08" font-family="Times,serif" font-size="14.00">a</text>
</g>
<!-- 32 -->
<g id="node31" class="node">
<title>32</title>
<ellipse fill="none" stroke="black" cx="238" cy="-123.19" rx="18" ry="18"/>
</g>
<!-- 31&#45;&gt;32 -->
<g id="edge32" class="edge">
<title>31&#45;&gt;32</title>
<path fill="none" stroke="black" d="M237.15,-221.46C237.31,-203.25 237.56,-174.38 237.75,-152.81"/>
<polygon fill="black" stroke="black" points="241.25,-152.94 237.84,-142.91 234.25,-152.88 241.25,-152.94"/>
<text xml:space="preserve" text-anchor="middle" x="239.87" y="-180.83" font-family="Times,serif" font-size="14.00">r</text>
</g>
<!-- 32&#45;&gt;5 -->
<g id="edge33" class="edge">
<title>32&#45;&gt;5</title>
<path fill="none" stroke="black" d="M238,-104.91C238,-91.33 238,-72.03 238,-55.58"/>
<polygon fill="black" stroke="black" points="241.5,-55.73 238,-45.73 234.5,-55.73 241.5,-55.73"/>
<text xml:space="preserve" text-anchor="middle" x="241.38" y="-65.2" font-family="Times,serif" font-size="14.00">y</text>
</g>
<!-- 34&#45;&gt;32 -->
<g id="edge35" class="edge">
<title>34&#45;&gt;32</title>
<path fill="none" stroke="black" d="M188.69,-223.41C198.04,-204.6 213.96,-172.57 225.17,-150"/>
<polygon fill="black" stroke="black" points="228.26,-151.65 229.58,-141.13 221.99,-148.53 228.26,-151.65"/>
<text xml:space="preserve" text-anchor="middle" x="223.03" y="-180.83" font-family="Times,serif" font-size="14.00">l|1</text>
</g>
<!-- 37 -->
<g id="node33" class="node">
<title>37</title>
<ellipse fill="none" stroke="black" cx="184" cy="-123.19" rx="18" ry="18"/>
</g>
<!-- 34&#45;&gt;37 -->
<g id="edge36" class="edge">
<title>34&#45;&gt;37</title>
<path fill="none" stroke="black" d="M176.12,-222.29C174.64,-216.52 173.23,-209.96 172.5,-203.88 170.6,-187.99 170.45,-183.75 172.5,-167.88 173.19,-162.57 174.32,-156.99 175.62,-151.66"/>
<polygon fill="black" stroke="black" points="178.99,-152.62 178.22,-142.05 172.23,-150.79 178.99,-152.62"/>
<text xml:space="preserve" text-anchor="middle" x="180.75" y="-180.83" font-family="Times,serif" font-size="14.00">n|0</text>
</g>
<!-- 37&#45;&gt;5 -->
<g id="edge37" class="edge">
<title>37&#45;&gt;5</title>
<path fill="none" stroke="black" d="M192.2,-107.13C200.14,-92.54 212.39,-70.04 222.23,-51.98"/>
<polygon fill="black" stroke="black" points="225.25,-53.73 226.96,-43.28 219.11,-50.39 225.25,-53.73"/>
<text xml:space="preserve" text-anchor="middle" x="218.84" y="-65.2" font-family="Times,serif" font-size="14.00">e</text>
</g>
<!-- 40 -->
<g id="node35" class="node">
<title>40</title>
<ellipse fill="none" stroke="black" cx="292" cy="-328.38" rx="18" ry="18"/>
</g>
<!-- 39&#45;&gt;40 -->
<g id="edge39" class="edge">
<title>39&#45;&gt;40</title>
<path fill="none" stroke="black" d="M269.31,-757.13C270.8,-736.17 273,-699.7 273,-668.38 273,-668.38 273,-668.38 273,-415.88 273,-395.64 278.02,-373.35 282.9,-356.46"/>
<polygon fill="black" stroke="black" points="286.17,-357.76 285.75,-347.18 279.47,-355.71 286.17,-357.76"/>
<text xml:space="preserve" text-anchor="middle" x="276" y="-554.33" font-family="Times,serif" font-size="14.00">a</text>
</g>
<!-- 40&#45;&gt;5 -->
<g id="edge43" class="edge">
<title>40&#45;&gt;5</title>
<path fill="none" stroke="black" d="M299.95,-311.86C306.54,-298.09 315.38,-277.22 319,-257.88 332.21,-187.38 348.05,-162.08 319,-96.5 308.31,-72.36 285.34,-52.77 266.59,-39.9"/>
<polygon fill="black" stroke="black" points="268.53,-36.99 258.25,-34.45 264.7,-42.85 268.53,-36.99"/>
<text xml:space="preserve" text-anchor="middle" x="338.63" y="-180.83" font-family="Times,serif" font-size="14.00">y</text>
</g>
<!-- 41 -->
<g id="node36" class="node">
<title>41</title>
<ellipse fill="none" stroke="black" cx="292" cy="-239.88" rx="18" ry="18"/>
</g>
<!-- 40&#45;&gt;41 -->
<g id="edge40" class="edge">
<title>40&#45;&gt;41</title>
<path fill="none" stroke="black" d="M292,-310.29C292,-298.64 292,-282.93 292,-269.4"/>
<polygon fill="black" stroke="black" points="295.5,-269.74 292,-259.74 288.5,-269.74 295.5,-269.74"/>
<text xml:space="preserve" text-anchor="middle" x="294.25" y="-279.08" font-family="Times,serif" font-size="14.00">r</text>
</g>
<!-- 42 -->
<g id="node37" class="node">
<title>42</title>
<ellipse fill="none" stroke="black" cx="292" cy="-123.19" rx="18" ry="18"/>
</g>
<!-- 41&#45;&gt;42 -->
<g id="edge41" class="edge">
<title>41&#45;&gt;42</title>
<path fill="none" stroke="black" d="M292,-221.46C292,-203.25 292,-174.38 292,-152.81"/>
<polygon fill="black" stroke="black" points="295.5,-152.91 292,-142.91 288.5,-152.91 295.5,-152.91"/>
<text xml:space="preserve" text-anchor="middle" x="295" y="-180.83" font-family="Times,serif" font-size="14.00">c</text>
</g>
<!-- 42&#45;&gt;5 -->
<g id="edge42" class="edge">
<title>42&#45;&gt;5</title>
<path fill="none" stroke="black" d="M283.8,-107.13C275.86,-92.54 263.61,-70.04 253.77,-51.98"/>
<polygon fill="black" stroke="black" points="256.89,-50.39 249.04,-43.28 250.75,-53.73 256.89,-50.39"/>
<text xml:space="preserve" text-anchor="middle" x="269.99" y="-65.2" font-family="Times,serif" font-size="14.00">h</text>
</g>
<!-- 46 -->
<g id="node39" class="node">
<title>46</title>
<ellipse fill="none" stroke="black" cx="369" cy="-667.38" rx="18" ry="18"/>
</g>
<!-- 45&#45;&gt;46 -->
<g id="edge45" class="edge">
<title>45&#45;&gt;46</title>
<path fill="none" stroke="black" d="M362.76,-810.95C363.96,-783.54 366.3,-730.07 367.75,-696.97"/>
<polygon fill="black" stroke="black" points="371.23,-697.44 368.17,-687.3 364.24,-697.14 371.23,-697.44"/>
<text xml:space="preserve" text-anchor="middle" x="368.43" y="-770.33" font-family="Times,serif" font-size="14.00">o</text>
</g>
<!-- 46&#45;&gt;13 -->
<g id="edge46" class="edge">
<title>46&#45;&gt;13</title>
<path fill="none" stroke="black" d="M369.76,-648.95C370.96,-621.54 373.3,-568.07 374.75,-534.97"/>
<polygon fill="black" stroke="black" points="378.23,-535.44 375.17,-525.3 371.24,-535.14 378.23,-535.44"/>
<text xml:space="preserve" text-anchor="middle" x="375.43" y="-608.33" font-family="Times,serif" font-size="14.00">v</text>
</g>
<!-- 54 -->
<g id="node41" class="node">
<title>54</title>
<ellipse fill="none" stroke="black" cx="466" cy="-721.38" rx="18" ry="18"/>
</g>
<!-- 53&#45;&gt;54 -->
<g id="edge48" class="edge">
<title>53&#45;&gt;54</title>
<path fill="none" stroke="black" d="M469.36,-811.35C468.75,-795.14 467.81,-770.44 467.09,-751.17"/>
<polygon fill="black" stroke="black" points="470.59,-751.09 466.71,-741.23 463.59,-751.36 470.59,-751.09"/>
<text xml:space="preserve" text-anchor="middle" x="471.59" y="-770.33" font-family="Times,serif" font-size="14.00">c</text>
</g>
<!-- 55 -->
<g id="node42" class="node">
<title>55</title>
<ellipse fill="none" stroke="black" cx="455" cy="-559.38" rx="18" ry="18"/>
</g>
<!-- 54&#45;&gt;55 -->
<g id="edge49" class="edge">
<title>54&#45;&gt;55</title>
<path fill="none" stroke="black" d="M464.8,-702.95C462.92,-675.54 459.24,-622.07 456.97,-588.97"/>
<polygon fill="black" stroke="black" points="460.48,-589.03 456.3,-579.3 453.49,-589.51 460.48,-589.03"/>
<text xml:space="preserve" text-anchor="middle" x="465.3" y="-662.33" font-family="Times,serif" font-size="14.00">t</text>
</g>
<!-- 55&#45;&gt;15 -->
<g id="edge50" class="edge">
<title>55&#45;&gt;15</title>
<path fill="none" stroke="black" d="M450.14,-541.71C440.3,-508.07 417.12,-429.7 396,-364.38 395.17,-361.8 394.28,-359.12 393.38,-356.45"/>
<polygon fill="black" stroke="black" points="396.76,-355.49 390.22,-347.15 390.13,-357.75 396.76,-355.49"/>
<text xml:space="preserve" text-anchor="middle" x="431.44" y="-456.08" font-family="Times,serif" font-size="14.00">o</text>
</g>
<!-- 61 -->
<g id="node44" class="node">
<title>61</title>
<ellipse fill="none" stroke="black" cx="319" cy="-721.38" rx="18" ry="18"/>
</g>
<!-- 60&#45;&gt;61 -->
<g id="edge52" class="edge">
<title>60&#45;&gt;61</title>
<path fill="none" stroke="black" d="M309.77,-811.35C311.45,-795.14 314.01,-770.44 316.01,-751.17"/>
<polygon fill="black" stroke="black" points="319.49,-751.53 317.04,-741.23 312.53,-750.81 319.49,-751.53"/>
<text xml:space="preserve" text-anchor="middle" x="318.13" y="-770.33" font-family="Times,serif" font-size="14.00">e</text>
</g>
<!-- 62 -->
<g id="node45" class="node">
<title>62</title>
<ellipse fill="none" stroke="black" cx="319" cy="-613.38" rx="18" ry="18"/>
</g>
<!-- 61&#45;&gt;62 -->
<g id="edge53" class="edge">
<title>61&#45;&gt;62</title>
<path fill="none" stroke="black" d="M319,-703.35C319,-687.14 319,-662.44 319,-643.17"/>
<polygon fill="black" stroke="black" points="322.5,-643.23 319,-633.23 315.5,-643.23 322.5,-643.23"/>
<text xml:space="preserve" text-anchor="middle" x="322.38" y="-662.33" font-family="Times,serif" font-size="14.00">p</text>
</g>
<!-- 62&#45;&gt;13 -->
<g id="edge54" class="edge">
<title>62&#45;&gt;13</title>
<path fill="none" stroke="black" d="M326.64,-596.72C333.79,-582.23 344.9,-560.17 355.25,-541.38 357.09,-538.04 359.08,-534.55 361.07,-531.12"/>
<polygon fill="black" stroke="black" points="364.06,-532.94 366.13,-522.55 358.03,-529.38 364.06,-532.94"/>
<text xml:space="preserve" text-anchor="middle" x="357.12" y="-554.33" font-family="Times,serif" font-size="14.00">t</text>
</g>
</g>
</svg>
