<?xml version="1.0" encoding="UTF-8" standalone="no"?>
<!DOCTYPE svg PUBLIC "-//W3C//DTD SVG 1.1//EN"
 "http://www.w3.org/Graphics/SVG/1.1/DTD/svg11.dtd">
<!-- Generated by graphviz version 13.0.1 (20250615.1724)
 -->
<!-- Title: Trie Pages: 1 -->
<svg width="677pt" height="950pt"
 viewBox="0.00 0.00 677.00 950.00" xmlns="http://www.w3.org/2000/svg" xmlns:xlink="http://www.w3.org/1999/xlink">
<g id="graph0" class="graph" transform="scale(1 1) rotate(0) translate(4 945.88)">
<title>Trie</title>
<polygon fill="white" stroke="none" points="-4,4 -4,-945.88 673.26,-945.88 673.26,4 -4,4"/>
<!-- 0 -->
<g id="node1" class="node">
<title>0</title>
<ellipse fill="none" stroke="black" cx="341.13" cy="-923.88" rx="18" ry="18"/>
</g>
<!-- 21 -->
<g id="node2" class="node">
<title>21</title>
<ellipse fill="none" stroke="black" cx="84.13" cy="-835.38" rx="18" ry="18"/>
</g>
<!-- 0&#45;&gt;21 -->
<g id="edge1" class="edge">
<title>0&#45;&gt;21</title>
<path fill="none" stroke="black" d="M323.81,-917.6C301.96,-910.89 263.28,-898.87 230.38,-887.88 188.68,-873.95 140.66,-856.83 111.36,-846.27"/>
<polygon fill="black" stroke="black" points="112.76,-843.05 102.16,-842.94 110.38,-849.63 112.76,-843.05"/>
<text xml:space="preserve" text-anchor="middle" x="235.26" y="-874.58" font-family="Times,serif" font-size="14.00">A</text>
</g>
<!-- 61 -->
<g id="node12" class="node">
<title>61</title>
<ellipse fill="none" stroke="black" cx="177.13" cy="-835.38" rx="18" ry="18"/>
</g>
<!-- 0&#45;&gt;61 -->
<g id="edge11" class="edge">
<title>0&#45;&gt;61</title>
<path fill="none" stroke="black" d="M325.41,-914.58C297.07,-899.64 237.2,-868.06 202.83,-849.93"/>
<polygon fill="black" stroke="black" points="204.87,-847.05 194.39,-845.48 201.6,-853.24 204.87,-847.05"/>
<text xml:space="preserve" text-anchor="middle" x="278.7" y="-874.58" font-family="Times,serif" font-size="14.00">D</text>
</g>
<!-- 8 -->
<g id="node20" class="node">
<title>8</title>
<ellipse fill="none" stroke="black" cx="264.13" cy="-835.38" rx="18" ry="18"/>
</g>
<!-- 0&#45;&gt;8 -->
<g id="edge19" class="edge">
<title>0&#45;&gt;8</title>
<path fill="none" stroke="black" d="M329.44,-909.74C317.15,-895.94 297.65,-874.03 283.15,-857.74"/>
<polygon fill="black" stroke="black" points="285.95,-855.63 276.69,-850.49 280.72,-860.28 285.95,-855.63"/>
<text xml:space="preserve" text-anchor="middle" x="313.28" y="-874.58" font-family="Times,serif" font-size="14.00">F</text>
</g>
<!-- 1 -->
<g id="node28" class="node">
<title>1</title>
<ellipse fill="none" stroke="black" cx="320.13" cy="-835.38" rx="18" ry="18"/>
</g>
<!-- 0&#45;&gt;1 -->
<g id="edge27" class="edge">
<title>0&#45;&gt;1</title>
<path fill="none" stroke="black" d="M337.08,-906.2C334.2,-894.31 330.25,-878.05 326.89,-864.21"/>
<polygon fill="black" stroke="black" points="330.36,-863.66 324.6,-854.77 323.55,-865.32 330.36,-863.66"/>
<text xml:space="preserve" text-anchor="middle" x="335.14" y="-874.58" font-family="Times,serif" font-size="14.00">J</text>
</g>
<!-- 16 -->
<g id="node40" class="node">
<title>16</title>
<ellipse fill="none" stroke="black" cx="376.13" cy="-835.38" rx="18" ry="18"/>
</g>
<!-- 0&#45;&gt;16 -->
<g id="edge39" class="edge">
<title>0&#45;&gt;16</title>
<path fill="none" stroke="black" d="M347.71,-906.61C352.65,-894.41 359.52,-877.43 365.27,-863.23"/>
<polygon fill="black" stroke="black" points="368.5,-864.56 369.01,-853.98 362.01,-861.94 368.5,-864.56"/>
<text xml:space="preserve" text-anchor="middle" x="368.14" y="-874.58" font-family="Times,serif" font-size="14.00">M</text>
</g>
<!-- 53 -->
<g id="node46" class="node">
<title>53</title>
<ellipse fill="none" stroke="black" cx="431.13" cy="-835.38" rx="18" ry="18"/>
</g>
<!-- 0&#45;&gt;53 -->
<g id="edge45" class="edge">
<title>0&#45;&gt;53</title>
<path fill="none" stroke="black" d="M353.84,-910.93C361,-904.19 370.09,-895.59 378.13,-887.88 388.88,-877.58 400.77,-866.04 410.56,-856.49"/>
<polygon fill="black" stroke="black" points="412.74,-859.25 417.46,-849.76 407.86,-854.24 412.74,-859.25"/>
<text xml:space="preserve" text-anchor="middle" x="399.09" y="-874.58" font-family="Times,serif" font-size="14.00">N</text>
</g>
<!-- 46 -->
<g id="node54" class="node">
<title>46</title>
<ellipse fill="none" stroke="black" cx="486.13" cy="-835.38" rx="18" ry="18"/>
</g>
<!-- 0&#45;&gt;46 -->
<g id="edge53" class="edge">
<title>0&#45;&gt;46</title>
<path fill="none" stroke="black" d="M357.08,-915.12C370.82,-908.31 391.06,-897.94 408.13,-887.88 426.82,-876.86 447.27,-863.31 462.54,-852.87"/>
<polygon fill="black" stroke="black" points="464.26,-855.93 470.5,-847.37 460.28,-850.17 464.26,-855.93"/>
<text xml:space="preserve" text-anchor="middle" x="439.21" y="-874.58" font-family="Times,serif" font-size="14.00">O</text>
</g>
<!-- 37 -->
<g id="node61" class="node">
<title>37</title>
<ellipse fill="none" stroke="black" cx="540.13" cy="-835.38" rx="18" ry="18"/>
</g>
<!-- 0&#45;&gt;37 -->
<g id="edge60" class="edge">
<title>0&#45;&gt;37</title>
<path fill="none" stroke="black" d="M358.51,-918.19C379.97,-912.18 417.37,-900.96 448.13,-887.88 478.23,-875.08 484.83,-869.77 513.13,-853.38 513.87,-852.95 514.61,-852.52 515.36,-852.07"/>
<polygon fill="black" stroke="black" points="517.12,-855.1 523.82,-846.9 513.47,-849.13 517.12,-855.1"/>
<text xml:space="preserve" text-anchor="middle" x="485.05" y="-874.58" font-family="Times,serif" font-size="14.00">S</text>
</g>
<!-- 22 -->
<g id="node3" class="node">
<title>22</title>
<ellipse fill="none" stroke="black" cx="29.13" cy="-746.88" rx="18" ry="18"/>
</g>
<!-- 21&#45;&gt;22 -->
<g id="edge2" class="edge">
<title>21&#45;&gt;22</title>
<path fill="none" stroke="black" d="M74.8,-819.71C66.5,-806.66 54.21,-787.33 44.47,-772.01"/>
<polygon fill="black" stroke="black" points="47.64,-770.46 39.32,-763.9 41.73,-774.22 47.64,-770.46"/>
<text xml:space="preserve" text-anchor="middle" x="64.93" y="-786.08" font-family="Times,serif" font-size="14.00">p</text>
</g>
<!-- 32 -->
<g id="node7" class="node">
<title>32</title>
<ellipse fill="none" stroke="black" cx="84.13" cy="-746.88" rx="18" ry="18"/>
</g>
<!-- 21&#45;&gt;32 -->
<g id="edge6" class="edge">
<title>21&#45;&gt;32</title>
<path fill="none" stroke="black" d="M84.13,-817.29C84.13,-805.64 84.13,-789.93 84.13,-776.4"/>
<polygon fill="black" stroke="black" points="87.63,-776.74 84.13,-766.74 80.63,-776.74 87.63,-776.74"/>
<text xml:space="preserve" text-anchor="middle" x="87.51" y="-786.08" font-family="Times,serif" font-size="14.00">u</text>
</g>
<!-- 23 -->
<g id="node4" class="node">
<title>23</title>
<ellipse fill="none" stroke="black" cx="28.13" cy="-652.25" rx="18" ry="18"/>
</g>
<!-- 22&#45;&gt;23 -->
<g id="edge3" class="edge">
<title>22&#45;&gt;23</title>
<path fill="none" stroke="black" d="M28.94,-728.46C28.8,-715.39 28.61,-697.21 28.44,-682"/>
<polygon fill="black" stroke="black" points="31.94,-682.07 28.33,-672.11 24.94,-682.14 31.94,-682.07"/>
<text xml:space="preserve" text-anchor="middle" x="31" y="-697.58" font-family="Times,serif" font-size="14.00">r</text>
</g>
<!-- 24 -->
<g id="node5" class="node">
<title>24</title>
<ellipse fill="none" stroke="black" cx="25.13" cy="-551.49" rx="18" ry="18"/>
</g>
<!-- 23&#45;&gt;24 -->
<g id="edge4" class="edge">
<title>23&#45;&gt;24</title>
<path fill="none" stroke="black" d="M27.61,-634.04C27.16,-619.41 26.52,-598.09 25.99,-580.91"/>
<polygon fill="black" stroke="black" points="29.51,-581.22 25.7,-571.34 22.51,-581.44 29.51,-581.22"/>
<text xml:space="preserve" text-anchor="middle" x="28.69" y="-596.82" font-family="Times,serif" font-size="14.00">i</text>
</g>
<!-- 25 -->
<g id="node6" class="node">
<title>25</title>
<ellipse fill="none" stroke="black" cx="24.13" cy="-450.72" rx="20.13" ry="20.13"/>
<ellipse fill="none" stroke="black" cx="24.13" cy="-450.72" rx="24.13" ry="24.13"/>
<text xml:space="preserve" text-anchor="middle" x="24.13" y="-445.67" font-family="Times,serif" font-size="14.00">30</text>
</g>
<!-- 24&#45;&gt;25 -->
<g id="edge5" class="edge">
<title>24&#45;&gt;25</title>
<path fill="none" stroke="black" d="M24.96,-533.28C24.83,-520.3 24.64,-502.05 24.48,-486.11"/>
<polygon fill="black" stroke="black" points="27.98,-486.5 24.38,-476.53 20.98,-486.57 27.98,-486.5"/>
<text xml:space="preserve" text-anchor="middle" x="26.57" y="-496.05" font-family="Times,serif" font-size="14.00">l</text>
</g>
<!-- 33 -->
<g id="node8" class="node">
<title>33</title>
<ellipse fill="none" stroke="black" cx="84.13" cy="-652.25" rx="18" ry="18"/>
</g>
<!-- 32&#45;&gt;33 -->
<g id="edge7" class="edge">
<title>32&#45;&gt;33</title>
<path fill="none" stroke="black" d="M84.13,-728.46C84.13,-715.39 84.13,-697.21 84.13,-682"/>
<polygon fill="black" stroke="black" points="87.63,-682.11 84.13,-672.11 80.63,-682.11 87.63,-682.11"/>
<text xml:space="preserve" text-anchor="middle" x="87.51" y="-697.58" font-family="Times,serif" font-size="14.00">g</text>
</g>
<!-- 34 -->
<g id="node9" class="node">
<title>34</title>
<ellipse fill="none" stroke="black" cx="84.13" cy="-551.49" rx="18" ry="18"/>
</g>
<!-- 33&#45;&gt;34 -->
<g id="edge8" class="edge">
<title>33&#45;&gt;34</title>
<path fill="none" stroke="black" d="M84.13,-634.04C84.13,-619.41 84.13,-598.09 84.13,-580.91"/>
<polygon fill="black" stroke="black" points="87.63,-581.34 84.13,-571.34 80.63,-581.34 87.63,-581.34"/>
<text xml:space="preserve" text-anchor="middle" x="87.51" y="-596.82" font-family="Times,serif" font-size="14.00">u</text>
</g>
<!-- 35 -->
<g id="node10" class="node">
<title>35</title>
<ellipse fill="none" stroke="black" cx="84.13" cy="-450.72" rx="18" ry="18"/>
</g>
<!-- 34&#45;&gt;35 -->
<g id="edge9" class="edge">
<title>34&#45;&gt;35</title>
<path fill="none" stroke="black" d="M84.13,-533.28C84.13,-518.64 84.13,-497.32 84.13,-480.15"/>
<polygon fill="black" stroke="black" points="87.63,-480.57 84.13,-470.57 80.63,-480.57 87.63,-480.57"/>
<text xml:space="preserve" text-anchor="middle" x="86.76" y="-496.05" font-family="Times,serif" font-size="14.00">s</text>
</g>
<!-- 36 -->
<g id="node11" class="node">
<title>36</title>
<ellipse fill="none" stroke="black" cx="81.13" cy="-349.96" rx="20.13" ry="20.13"/>
<ellipse fill="none" stroke="black" cx="81.13" cy="-349.96" rx="24.13" ry="24.13"/>
<text xml:space="preserve" text-anchor="middle" x="81.13" y="-344.91" font-family="Times,serif" font-size="14.00">31</text>
</g>
<!-- 35&#45;&gt;36 -->
<g id="edge10" class="edge">
<title>35&#45;&gt;36</title>
<path fill="none" stroke="black" d="M83.61,-432.52C83.21,-419.53 82.66,-401.29 82.18,-385.35"/>
<polygon fill="black" stroke="black" points="85.69,-385.66 81.88,-375.77 78.69,-385.87 85.69,-385.66"/>
<text xml:space="preserve" text-anchor="middle" x="84.69" y="-395.29" font-family="Times,serif" font-size="14.00">t</text>
</g>
<!-- 62 -->
<g id="node13" class="node">
<title>62</title>
<ellipse fill="none" stroke="black" cx="141.13" cy="-746.88" rx="18" ry="18"/>
</g>
<!-- 61&#45;&gt;62 -->
<g id="edge12" class="edge">
<title>61&#45;&gt;62</title>
<path fill="none" stroke="black" d="M170.53,-818.51C165.38,-806.15 158.13,-788.73 152.12,-774.27"/>
<polygon fill="black" stroke="black" points="155.47,-773.22 148.4,-765.33 149.01,-775.91 155.47,-773.22"/>
<text xml:space="preserve" text-anchor="middle" x="165.36" y="-786.08" font-family="Times,serif" font-size="14.00">e</text>
</g>
<!-- 63 -->
<g id="node14" class="node">
<title>63</title>
<ellipse fill="none" stroke="black" cx="141.13" cy="-652.25" rx="18" ry="18"/>
</g>
<!-- 62&#45;&gt;63 -->
<g id="edge13" class="edge">
<title>62&#45;&gt;63</title>
<path fill="none" stroke="black" d="M141.13,-728.46C141.13,-715.39 141.13,-697.21 141.13,-682"/>
<polygon fill="black" stroke="black" points="144.63,-682.11 141.13,-672.11 137.63,-682.11 144.63,-682.11"/>
<text xml:space="preserve" text-anchor="middle" x="144.13" y="-697.58" font-family="Times,serif" font-size="14.00">c</text>
</g>
<!-- 64 -->
<g id="node15" class="node">
<title>64</title>
<ellipse fill="none" stroke="black" cx="141.13" cy="-551.49" rx="18" ry="18"/>
</g>
<!-- 63&#45;&gt;64 -->
<g id="edge14" class="edge">
<title>63&#45;&gt;64</title>
<path fill="none" stroke="black" d="M141.13,-634.04C141.13,-619.41 141.13,-598.09 141.13,-580.91"/>
<polygon fill="black" stroke="black" points="144.63,-581.34 141.13,-571.34 137.63,-581.34 144.63,-581.34"/>
<text xml:space="preserve" text-anchor="middle" x="144.13" y="-596.82" font-family="Times,serif" font-size="14.00">e</text>
</g>
<!-- 65 -->
<g id="node16" class="node">
<title>65</title>
<ellipse fill="none" stroke="black" cx="141.13" cy="-450.72" rx="18" ry="18"/>
</g>
<!-- 64&#45;&gt;65 -->
<g id="edge15" class="edge">
<title>64&#45;&gt;65</title>
<path fill="none" stroke="black" d="M141.13,-533.28C141.13,-518.64 141.13,-497.32 141.13,-480.15"/>
<polygon fill="black" stroke="black" points="144.63,-480.57 141.13,-470.57 137.63,-480.57 144.63,-480.57"/>
<text xml:space="preserve" text-anchor="middle" x="146.76" y="-496.05" font-family="Times,serif" font-size="14.00">m</text>
</g>
<!-- 66 -->
<g id="node17" class="node">
<title>66</title>
<ellipse fill="none" stroke="black" cx="141.13" cy="-349.96" rx="18" ry="18"/>
</g>
<!-- 65&#45;&gt;66 -->
<g id="edge16" class="edge">
<title>65&#45;&gt;66</title>
<path fill="none" stroke="black" d="M141.13,-432.52C141.13,-417.88 141.13,-396.56 141.13,-379.39"/>
<polygon fill="black" stroke="black" points="144.63,-379.81 141.13,-369.81 137.63,-379.81 144.63,-379.81"/>
<text xml:space="preserve" text-anchor="middle" x="144.51" y="-395.29" font-family="Times,serif" font-size="14.00">b</text>
</g>
<!-- 67 -->
<g id="node18" class="node">
<title>67</title>
<ellipse fill="none" stroke="black" cx="135.13" cy="-249.2" rx="18" ry="18"/>
</g>
<!-- 66&#45;&gt;67 -->
<g id="edge17" class="edge">
<title>66&#45;&gt;67</title>
<path fill="none" stroke="black" d="M140.09,-331.76C139.2,-317.12 137.9,-295.8 136.86,-278.63"/>
<polygon fill="black" stroke="black" points="140.38,-278.82 136.28,-269.05 133.39,-279.24 140.38,-278.82"/>
<text xml:space="preserve" text-anchor="middle" x="141.49" y="-294.53" font-family="Times,serif" font-size="14.00">e</text>
</g>
<!-- 68 -->
<g id="node19" class="node">
<title>68</title>
<ellipse fill="none" stroke="black" cx="123.13" cy="-136.66" rx="20.13" ry="20.13"/>
<ellipse fill="none" stroke="black" cx="123.13" cy="-136.66" rx="24.13" ry="24.13"/>
<text xml:space="preserve" text-anchor="middle" x="123.13" y="-131.61" font-family="Times,serif" font-size="14.00">31</text>
</g>
<!-- 67&#45;&gt;68 -->
<g id="edge18" class="edge">
<title>67&#45;&gt;68</title>
<path fill="none" stroke="black" d="M133.26,-230.93C131.56,-215.27 129,-191.72 126.88,-172.2"/>
<polygon fill="black" stroke="black" points="130.38,-172.04 125.82,-162.48 123.42,-172.8 130.38,-172.04"/>
<text xml:space="preserve" text-anchor="middle" x="132.81" y="-193.77" font-family="Times,serif" font-size="14.00">r</text>
</g>
<!-- 9 -->
<g id="node21" class="node">
<title>9</title>
<ellipse fill="none" stroke="black" cx="195.13" cy="-746.88" rx="18" ry="18"/>
</g>
<!-- 8&#45;&gt;9 -->
<g id="edge20" class="edge">
<title>8&#45;&gt;9</title>
<path fill="none" stroke="black" d="M253.35,-820.86C242.58,-807.36 225.82,-786.36 213.05,-770.34"/>
<polygon fill="black" stroke="black" points="215.98,-768.4 207.01,-762.77 210.51,-772.77 215.98,-768.4"/>
<text xml:space="preserve" text-anchor="middle" x="238.81" y="-786.08" font-family="Times,serif" font-size="14.00">e</text>
</g>
<!-- 10 -->
<g id="node22" class="node">
<title>10</title>
<ellipse fill="none" stroke="black" cx="195.13" cy="-652.25" rx="18" ry="18"/>
</g>
<!-- 9&#45;&gt;10 -->
<g id="edge21" class="edge">
<title>9&#45;&gt;10</title>
<path fill="none" stroke="black" d="M195.13,-728.46C195.13,-715.39 195.13,-697.21 195.13,-682"/>
<polygon fill="black" stroke="black" points="198.63,-682.11 195.13,-672.11 191.63,-682.11 198.63,-682.11"/>
<text xml:space="preserve" text-anchor="middle" x="198.51" y="-697.58" font-family="Times,serif" font-size="14.00">b</text>
</g>
<!-- 11 -->
<g id="node23" class="node">
<title>11</title>
<ellipse fill="none" stroke="black" cx="195.13" cy="-551.49" rx="18" ry="18"/>
</g>
<!-- 10&#45;&gt;11 -->
<g id="edge22" class="edge">
<title>10&#45;&gt;11</title>
<path fill="none" stroke="black" d="M195.13,-634.04C195.13,-619.41 195.13,-598.09 195.13,-580.91"/>
<polygon fill="black" stroke="black" points="198.63,-581.34 195.13,-571.34 191.63,-581.34 198.63,-581.34"/>
<text xml:space="preserve" text-anchor="middle" x="197.38" y="-596.82" font-family="Times,serif" font-size="14.00">r</text>
</g>
<!-- 12 -->
<g id="node24" class="node">
<title>12</title>
<ellipse fill="none" stroke="black" cx="195.13" cy="-450.72" rx="18" ry="18"/>
</g>
<!-- 11&#45;&gt;12 -->
<g id="edge23" class="edge">
<title>11&#45;&gt;12</title>
<path fill="none" stroke="black" d="M195.13,-533.28C195.13,-518.64 195.13,-497.32 195.13,-480.15"/>
<polygon fill="black" stroke="black" points="198.63,-480.57 195.13,-470.57 191.63,-480.57 198.63,-480.57"/>
<text xml:space="preserve" text-anchor="middle" x="198.51" y="-496.05" font-family="Times,serif" font-size="14.00">u</text>
</g>
<!-- 13 -->
<g id="node25" class="node">
<title>13</title>
<ellipse fill="none" stroke="black" cx="195.13" cy="-349.96" rx="18" ry="18"/>
</g>
<!-- 12&#45;&gt;13 -->
<g id="edge24" class="edge">
<title>12&#45;&gt;13</title>
<path fill="none" stroke="black" d="M195.13,-432.52C195.13,-417.88 195.13,-396.56 195.13,-379.39"/>
<polygon fill="black" stroke="black" points="198.63,-379.81 195.13,-369.81 191.63,-379.81 198.63,-379.81"/>
<text xml:space="preserve" text-anchor="middle" x="198.13" y="-395.29" font-family="Times,serif" font-size="14.00">a</text>
</g>
<!-- 14 -->
<g id="node26" class="node">
<title>14</title>
<ellipse fill="none" stroke="black" cx="195.13" cy="-249.2" rx="18" ry="18"/>
</g>
<!-- 13&#45;&gt;14 -->
<g id="edge25" class="edge">
<title>13&#45;&gt;14</title>
<path fill="none" stroke="black" d="M195.13,-331.76C195.13,-317.12 195.13,-295.8 195.13,-278.63"/>
<polygon fill="black" stroke="black" points="198.63,-279.05 195.13,-269.05 191.63,-279.05 198.63,-279.05"/>
<text xml:space="preserve" text-anchor="middle" x="197.38" y="-294.53" font-family="Times,serif" font-size="14.00">r</text>
</g>
<!-- 15 -->
<g id="node27" class="node">
<title>15</title>
<ellipse fill="none" stroke="black" cx="201.13" cy="-136.66" rx="31.9" ry="31.9"/>
<ellipse fill="none" stroke="black" cx="201.13" cy="-136.66" rx="35.9" ry="35.9"/>
<text xml:space="preserve" text-anchor="middle" x="201.13" y="-131.61" font-family="Times,serif" font-size="14.00">28,29</text>
</g>
<!-- 14&#45;&gt;15 -->
<g id="edge26" class="edge">
<title>14&#45;&gt;15</title>
<path fill="none" stroke="black" d="M196.07,-230.93C196.75,-218.3 197.72,-200.54 198.62,-183.9"/>
<polygon fill="black" stroke="black" points="202.1,-184.32 199.15,-174.15 195.11,-183.95 202.1,-184.32"/>
<text xml:space="preserve" text-anchor="middle" x="201.51" y="-193.77" font-family="Times,serif" font-size="14.00">y</text>
</g>
<!-- 2 -->
<g id="node29" class="node">
<title>2</title>
<ellipse fill="none" stroke="black" cx="257.13" cy="-746.88" rx="18" ry="18"/>
</g>
<!-- 1&#45;&gt;2 -->
<g id="edge28" class="edge">
<title>1&#45;&gt;2</title>
<path fill="none" stroke="black" d="M309.73,-820.1C300,-806.74 285.31,-786.57 273.93,-770.94"/>
<polygon fill="black" stroke="black" points="276.95,-769.14 268.23,-763.12 271.29,-773.26 276.95,-769.14"/>
<text xml:space="preserve" text-anchor="middle" x="297.27" y="-786.08" font-family="Times,serif" font-size="14.00">a</text>
</g>
<!-- 27 -->
<g id="node35" class="node">
<title>27</title>
<ellipse fill="none" stroke="black" cx="320.13" cy="-746.88" rx="18" ry="18"/>
</g>
<!-- 1&#45;&gt;27 -->
<g id="edge34" class="edge">
<title>1&#45;&gt;27</title>
<path fill="none" stroke="black" d="M320.13,-817.29C320.13,-805.64 320.13,-789.93 320.13,-776.4"/>
<polygon fill="black" stroke="black" points="323.63,-776.74 320.13,-766.74 316.63,-776.74 323.63,-776.74"/>
<text xml:space="preserve" text-anchor="middle" x="323.51" y="-786.08" font-family="Times,serif" font-size="14.00">u</text>
</g>
<!-- 3 -->
<g id="node30" class="node">
<title>3</title>
<ellipse fill="none" stroke="black" cx="249.13" cy="-652.25" rx="18" ry="18"/>
</g>
<!-- 2&#45;&gt;3 -->
<g id="edge29" class="edge">
<title>2&#45;&gt;3</title>
<path fill="none" stroke="black" d="M255.63,-728.46C254.5,-715.39 252.93,-697.21 251.61,-682"/>
<polygon fill="black" stroke="black" points="255.11,-681.76 250.76,-672.1 248.13,-682.36 255.11,-681.76"/>
<text xml:space="preserve" text-anchor="middle" x="257.46" y="-697.58" font-family="Times,serif" font-size="14.00">n</text>
</g>
<!-- 4 -->
<g id="node31" class="node">
<title>4</title>
<ellipse fill="none" stroke="black" cx="249.13" cy="-551.49" rx="18" ry="18"/>
</g>
<!-- 3&#45;&gt;4 -->
<g id="edge30" class="edge">
<title>3&#45;&gt;4</title>
<path fill="none" stroke="black" d="M249.13,-634.04C249.13,-619.41 249.13,-598.09 249.13,-580.91"/>
<polygon fill="black" stroke="black" points="252.63,-581.34 249.13,-571.34 245.63,-581.34 252.63,-581.34"/>
<text xml:space="preserve" text-anchor="middle" x="252.51" y="-596.82" font-family="Times,serif" font-size="14.00">u</text>
</g>
<!-- 5 -->
<g id="node32" class="node">
<title>5</title>
<ellipse fill="none" stroke="black" cx="249.13" cy="-450.72" rx="18" ry="18"/>
</g>
<!-- 4&#45;&gt;5 -->
<g id="edge31" class="edge">
<title>4&#45;&gt;5</title>
<path fill="none" stroke="black" d="M249.13,-533.28C249.13,-518.64 249.13,-497.32 249.13,-480.15"/>
<polygon fill="black" stroke="black" points="252.63,-480.57 249.13,-470.57 245.63,-480.57 252.63,-480.57"/>
<text xml:space="preserve" text-anchor="middle" x="252.13" y="-496.05" font-family="Times,serif" font-size="14.00">a</text>
</g>
<!-- 6 -->
<g id="node33" class="node">
<title>6</title>
<ellipse fill="none" stroke="black" cx="252.13" cy="-349.96" rx="18" ry="18"/>
</g>
<!-- 5&#45;&gt;6 -->
<g id="edge32" class="edge">
<title>5&#45;&gt;6</title>
<path fill="none" stroke="black" d="M249.65,-432.52C250.1,-417.88 250.75,-396.56 251.27,-379.39"/>
<polygon fill="black" stroke="black" points="254.75,-379.91 251.56,-369.81 247.76,-379.7 254.75,-379.91"/>
<text xml:space="preserve" text-anchor="middle" x="253.06" y="-395.29" font-family="Times,serif" font-size="14.00">r</text>
</g>
<!-- 7 -->
<g id="node34" class="node">
<title>7</title>
<ellipse fill="none" stroke="black" cx="255.13" cy="-249.2" rx="20.13" ry="20.13"/>
<ellipse fill="none" stroke="black" cx="255.13" cy="-249.2" rx="24.13" ry="24.13"/>
<text xml:space="preserve" text-anchor="middle" x="255.13" y="-244.15" font-family="Times,serif" font-size="14.00">31</text>
</g>
<!-- 6&#45;&gt;7 -->
<g id="edge33" class="edge">
<title>6&#45;&gt;7</title>
<path fill="none" stroke="black" d="M252.65,-331.76C253.05,-318.77 253.6,-300.53 254.09,-284.59"/>
<polygon fill="black" stroke="black" points="257.57,-285.11 254.38,-275.01 250.58,-284.9 257.57,-285.11"/>
<text xml:space="preserve" text-anchor="middle" x="257.19" y="-294.53" font-family="Times,serif" font-size="14.00">y</text>
</g>
<!-- 30 -->
<g id="node36" class="node">
<title>30</title>
<ellipse fill="none" stroke="black" cx="303.13" cy="-652.25" rx="18" ry="18"/>
</g>
<!-- 27&#45;&gt;30 -->
<g id="edge35" class="edge">
<title>27&#45;&gt;30</title>
<path fill="none" stroke="black" d="M317.01,-728.89C314.58,-715.65 311.16,-696.99 308.32,-681.51"/>
<polygon fill="black" stroke="black" points="311.81,-681.14 306.56,-671.93 304.92,-682.4 311.81,-681.14"/>
<text xml:space="preserve" text-anchor="middle" x="315.53" y="-697.58" font-family="Times,serif" font-size="14.00">l</text>
</g>
<!-- 28 -->
<g id="node38" class="node">
<title>28</title>
<ellipse fill="none" stroke="black" cx="357.13" cy="-652.25" rx="18" ry="18"/>
</g>
<!-- 27&#45;&gt;28 -->
<g id="edge37" class="edge">
<title>27&#45;&gt;28</title>
<path fill="none" stroke="black" d="M326.58,-729.74C332.06,-716.01 340.05,-696.02 346.48,-679.91"/>
<polygon fill="black" stroke="black" points="349.62,-681.5 350.07,-670.91 343.11,-678.9 349.62,-681.5"/>
<text xml:space="preserve" text-anchor="middle" x="343.12" y="-697.58" font-family="Times,serif" font-size="14.00">n</text>
</g>
<!-- 31 -->
<g id="node37" class="node">
<title>31</title>
<ellipse fill="none" stroke="black" cx="309.13" cy="-551.49" rx="20.13" ry="20.13"/>
<ellipse fill="none" stroke="black" cx="309.13" cy="-551.49" rx="24.13" ry="24.13"/>
<text xml:space="preserve" text-anchor="middle" x="309.13" y="-546.44" font-family="Times,serif" font-size="14.00">31</text>
</g>
<!-- 30&#45;&gt;31 -->
<g id="edge36" class="edge">
<title>30&#45;&gt;31</title>
<path fill="none" stroke="black" d="M304.18,-634.04C304.97,-621.06 306.07,-602.81 307.04,-586.87"/>
<polygon fill="black" stroke="black" points="310.51,-587.49 307.62,-577.29 303.52,-587.06 310.51,-587.49"/>
<text xml:space="preserve" text-anchor="middle" x="309.87" y="-596.82" font-family="Times,serif" font-size="14.00">y</text>
</g>
<!-- 29 -->
<g id="node39" class="node">
<title>29</title>
<ellipse fill="none" stroke="black" cx="375.13" cy="-551.49" rx="20.13" ry="20.13"/>
<ellipse fill="none" stroke="black" cx="375.13" cy="-551.49" rx="24.13" ry="24.13"/>
<text xml:space="preserve" text-anchor="middle" x="375.13" y="-546.44" font-family="Times,serif" font-size="14.00">30</text>
</g>
<!-- 28&#45;&gt;29 -->
<g id="edge38" class="edge">
<title>28&#45;&gt;29</title>
<path fill="none" stroke="black" d="M360.27,-634.04C362.65,-620.97 366,-602.56 368.92,-586.55"/>
<polygon fill="black" stroke="black" points="372.33,-587.37 370.68,-576.9 365.44,-586.11 372.33,-587.37"/>
<text xml:space="preserve" text-anchor="middle" x="370.21" y="-596.82" font-family="Times,serif" font-size="14.00">e</text>
</g>
<!-- 17 -->
<g id="node41" class="node">
<title>17</title>
<ellipse fill="none" stroke="black" cx="411.13" cy="-746.88" rx="18" ry="18"/>
</g>
<!-- 16&#45;&gt;17 -->
<g id="edge40" class="edge">
<title>16&#45;&gt;17</title>
<path fill="none" stroke="black" d="M382.71,-818.11C387.65,-805.91 394.52,-788.93 400.27,-774.73"/>
<polygon fill="black" stroke="black" points="403.5,-776.06 404.01,-765.48 397.01,-773.44 403.5,-776.06"/>
<text xml:space="preserve" text-anchor="middle" x="399.77" y="-786.08" font-family="Times,serif" font-size="14.00">a</text>
</g>
<!-- 18 -->
<g id="node42" class="node">
<title>18</title>
<ellipse fill="none" stroke="black" cx="411.13" cy="-652.25" rx="18" ry="18"/>
</g>
<!-- 17&#45;&gt;18 -->
<g id="edge41" class="edge">
<title>17&#45;&gt;18</title>
<path fill="none" stroke="black" d="M411.13,-728.46C411.13,-715.39 411.13,-697.21 411.13,-682"/>
<polygon fill="black" stroke="black" points="414.63,-682.11 411.13,-672.11 407.63,-682.11 414.63,-682.11"/>
<text xml:space="preserve" text-anchor="middle" x="413.38" y="-697.58" font-family="Times,serif" font-size="14.00">r</text>
</g>
<!-- 26 -->
<g id="node45" class="node">
<title>26</title>
<ellipse fill="none" stroke="black" cx="471.13" cy="-652.25" rx="20.13" ry="20.13"/>
<ellipse fill="none" stroke="black" cx="471.13" cy="-652.25" rx="24.13" ry="24.13"/>
<text xml:space="preserve" text-anchor="middle" x="471.13" y="-647.2" font-family="Times,serif" font-size="14.00">31</text>
</g>
<!-- 17&#45;&gt;26 -->
<g id="edge44" class="edge">
<title>17&#45;&gt;26</title>
<path fill="none" stroke="black" d="M420.51,-731.41C428.91,-718.43 441.51,-698.98 452.03,-682.74"/>
<polygon fill="black" stroke="black" points="454.94,-684.69 457.44,-674.39 449.06,-680.88 454.94,-684.69"/>
<text xml:space="preserve" text-anchor="middle" x="446.31" y="-697.58" font-family="Times,serif" font-size="14.00">y</text>
</g>
<!-- 19 -->
<g id="node43" class="node">
<title>19</title>
<ellipse fill="none" stroke="black" cx="435.13" cy="-551.49" rx="18" ry="18"/>
</g>
<!-- 18&#45;&gt;19 -->
<g id="edge42" class="edge">
<title>18&#45;&gt;19</title>
<path fill="none" stroke="black" d="M415.2,-634.49C418.82,-619.6 424.19,-597.53 428.44,-580.03"/>
<polygon fill="black" stroke="black" points="431.72,-581.34 430.68,-570.79 424.92,-579.68 431.72,-581.34"/>
<text xml:space="preserve" text-anchor="middle" x="427.57" y="-596.82" font-family="Times,serif" font-size="14.00">c</text>
</g>
<!-- 20 -->
<g id="node44" class="node">
<title>20</title>
<ellipse fill="none" stroke="black" cx="435.13" cy="-450.72" rx="20.13" ry="20.13"/>
<ellipse fill="none" stroke="black" cx="435.13" cy="-450.72" rx="24.13" ry="24.13"/>
<text xml:space="preserve" text-anchor="middle" x="435.13" y="-445.67" font-family="Times,serif" font-size="14.00">31</text>
</g>
<!-- 19&#45;&gt;20 -->
<g id="edge43" class="edge">
<title>19&#45;&gt;20</title>
<path fill="none" stroke="black" d="M435.13,-533.28C435.13,-520.3 435.13,-502.05 435.13,-486.11"/>
<polygon fill="black" stroke="black" points="438.63,-486.53 435.13,-476.53 431.63,-486.53 438.63,-486.53"/>
<text xml:space="preserve" text-anchor="middle" x="438.51" y="-496.05" font-family="Times,serif" font-size="14.00">h</text>
</g>
<!-- 54 -->
<g id="node47" class="node">
<title>54</title>
<ellipse fill="none" stroke="black" cx="472.13" cy="-746.88" rx="18" ry="18"/>
</g>
<!-- 53&#45;&gt;54 -->
<g id="edge46" class="edge">
<title>53&#45;&gt;54</title>
<path fill="none" stroke="black" d="M438.65,-818.51C444.55,-806.08 452.87,-788.51 459.75,-774"/>
<polygon fill="black" stroke="black" points="462.89,-775.55 464.01,-765.01 456.56,-772.55 462.89,-775.55"/>
<text xml:space="preserve" text-anchor="middle" x="458.68" y="-786.08" font-family="Times,serif" font-size="14.00">o</text>
</g>
<!-- 55 -->
<g id="node48" class="node">
<title>55</title>
<ellipse fill="none" stroke="black" cx="531.13" cy="-652.25" rx="18" ry="18"/>
</g>
<!-- 54&#45;&gt;55 -->
<g id="edge47" class="edge">
<title>54&#45;&gt;55</title>
<path fill="none" stroke="black" d="M481.61,-731C490.81,-716.55 504.94,-694.37 515.75,-677.39"/>
<polygon fill="black" stroke="black" points="518.44,-679.68 520.86,-669.37 512.54,-675.92 518.44,-679.68"/>
<text xml:space="preserve" text-anchor="middle" x="506.78" y="-697.58" font-family="Times,serif" font-size="14.00">v</text>
</g>
<!-- 56 -->
<g id="node49" class="node">
<title>56</title>
<ellipse fill="none" stroke="black" cx="531.13" cy="-551.49" rx="18" ry="18"/>
</g>
<!-- 55&#45;&gt;56 -->
<g id="edge48" class="edge">
<title>55&#45;&gt;56</title>
<path fill="none" stroke="black" d="M531.13,-634.04C531.13,-619.41 531.13,-598.09 531.13,-580.91"/>
<polygon fill="black" stroke="black" points="534.63,-581.34 531.13,-571.34 527.63,-581.34 534.63,-581.34"/>
<text xml:space="preserve" text-anchor="middle" x="534.13" y="-596.82" font-family="Times,serif" font-size="14.00">e</text>
</g>
<!-- 57 -->
<g id="node50" class="node">
<title>57</title>
<ellipse fill="none" stroke="black" cx="530.13" cy="-450.72" rx="18" ry="18"/>
</g>
<!-- 56&#45;&gt;57 -->
<g id="edge49" class="edge">
<title>56&#45;&gt;57</title>
<path fill="none" stroke="black" d="M530.96,-533.28C530.81,-518.64 530.59,-497.32 530.42,-480.15"/>
<polygon fill="black" stroke="black" points="533.92,-480.54 530.32,-470.57 526.92,-480.61 533.92,-480.54"/>
<text xml:space="preserve" text-anchor="middle" x="536.32" y="-496.05" font-family="Times,serif" font-size="14.00">m</text>
</g>
<!-- 58 -->
<g id="node51" class="node">
<title>58</title>
<ellipse fill="none" stroke="black" cx="529.13" cy="-349.96" rx="18" ry="18"/>
</g>
<!-- 57&#45;&gt;58 -->
<g id="edge50" class="edge">
<title>57&#45;&gt;58</title>
<path fill="none" stroke="black" d="M529.96,-432.52C529.81,-417.88 529.59,-396.56 529.42,-379.39"/>
<polygon fill="black" stroke="black" points="532.92,-379.78 529.32,-369.81 525.92,-379.85 532.92,-379.78"/>
<text xml:space="preserve" text-anchor="middle" x="533.07" y="-395.29" font-family="Times,serif" font-size="14.00">b</text>
</g>
<!-- 59 -->
<g id="node52" class="node">
<title>59</title>
<ellipse fill="none" stroke="black" cx="525.13" cy="-249.2" rx="18" ry="18"/>
</g>
<!-- 58&#45;&gt;59 -->
<g id="edge51" class="edge">
<title>58&#45;&gt;59</title>
<path fill="none" stroke="black" d="M528.43,-331.76C527.84,-317.12 526.98,-295.8 526.28,-278.63"/>
<polygon fill="black" stroke="black" points="529.8,-278.9 525.89,-269.05 522.8,-279.18 529.8,-278.9"/>
<text xml:space="preserve" text-anchor="middle" x="530.37" y="-294.53" font-family="Times,serif" font-size="14.00">e</text>
</g>
<!-- 60 -->
<g id="node53" class="node">
<title>60</title>
<ellipse fill="none" stroke="black" cx="525.13" cy="-136.66" rx="20.13" ry="20.13"/>
<ellipse fill="none" stroke="black" cx="525.13" cy="-136.66" rx="24.13" ry="24.13"/>
<text xml:space="preserve" text-anchor="middle" x="525.13" y="-131.61" font-family="Times,serif" font-size="14.00">30</text>
</g>
<!-- 59&#45;&gt;60 -->
<g id="edge52" class="edge">
<title>59&#45;&gt;60</title>
<path fill="none" stroke="black" d="M525.13,-230.93C525.13,-215.34 525.13,-191.94 525.13,-172.47"/>
<polygon fill="black" stroke="black" points="528.63,-172.48 525.13,-162.48 521.63,-172.48 528.63,-172.48"/>
<text xml:space="preserve" text-anchor="middle" x="527.38" y="-193.77" font-family="Times,serif" font-size="14.00">r</text>
</g>
<!-- 47 -->
<g id="node55" class="node">
<title>47</title>
<ellipse fill="none" stroke="black" cx="530.13" cy="-746.88" rx="18" ry="18"/>
</g>
<!-- 46&#45;&gt;47 -->
<g id="edge54" class="edge">
<title>46&#45;&gt;47</title>
<path fill="none" stroke="black" d="M494,-818.91C500.4,-806.32 509.58,-788.28 517.08,-773.53"/>
<polygon fill="black" stroke="black" points="520.08,-775.35 521.5,-764.85 513.84,-772.18 520.08,-775.35"/>
<text xml:space="preserve" text-anchor="middle" x="515.07" y="-786.08" font-family="Times,serif" font-size="14.00">c</text>
</g>
<!-- 48 -->
<g id="node56" class="node">
<title>48</title>
<ellipse fill="none" stroke="black" cx="585.13" cy="-652.25" rx="18" ry="18"/>
</g>
<!-- 47&#45;&gt;48 -->
<g id="edge55" class="edge">
<title>47&#45;&gt;48</title>
<path fill="none" stroke="black" d="M538.97,-731C547.42,-716.77 560.32,-695.04 570.33,-678.17"/>
<polygon fill="black" stroke="black" points="573.26,-680.09 575.36,-669.7 567.25,-676.51 573.26,-680.09"/>
<text xml:space="preserve" text-anchor="middle" x="561.16" y="-697.58" font-family="Times,serif" font-size="14.00">t</text>
</g>
<!-- 49 -->
<g id="node57" class="node">
<title>49</title>
<ellipse fill="none" stroke="black" cx="585.13" cy="-551.49" rx="18" ry="18"/>
</g>
<!-- 48&#45;&gt;49 -->
<g id="edge56" class="edge">
<title>48&#45;&gt;49</title>
<path fill="none" stroke="black" d="M585.13,-634.04C585.13,-619.41 585.13,-598.09 585.13,-580.91"/>
<polygon fill="black" stroke="black" points="588.63,-581.34 585.13,-571.34 581.63,-581.34 588.63,-581.34"/>
<text xml:space="preserve" text-anchor="middle" x="588.51" y="-596.82" font-family="Times,serif" font-size="14.00">o</text>
</g>
<!-- 50 -->
<g id="node58" class="node">
<title>50</title>
<ellipse fill="none" stroke="black" cx="585.13" cy="-450.72" rx="18" ry="18"/>
</g>
<!-- 49&#45;&gt;50 -->
<g id="edge57" class="edge">
<title>49&#45;&gt;50</title>
<path fill="none" stroke="black" d="M585.13,-533.28C585.13,-518.64 585.13,-497.32 585.13,-480.15"/>
<polygon fill="black" stroke="black" points="588.63,-480.57 585.13,-470.57 581.63,-480.57 588.63,-480.57"/>
<text xml:space="preserve" text-anchor="middle" x="588.51" y="-496.05" font-family="Times,serif" font-size="14.00">b</text>
</g>
<!-- 51 -->
<g id="node59" class="node">
<title>51</title>
<ellipse fill="none" stroke="black" cx="585.13" cy="-349.96" rx="18" ry="18"/>
</g>
<!-- 50&#45;&gt;51 -->
<g id="edge58" class="edge">
<title>50&#45;&gt;51</title>
<path fill="none" stroke="black" d="M585.13,-432.52C585.13,-417.88 585.13,-396.56 585.13,-379.39"/>
<polygon fill="black" stroke="black" points="588.63,-379.81 585.13,-369.81 581.63,-379.81 588.63,-379.81"/>
<text xml:space="preserve" text-anchor="middle" x="588.13" y="-395.29" font-family="Times,serif" font-size="14.00">e</text>
</g>
<!-- 52 -->
<g id="node60" class="node">
<title>52</title>
<ellipse fill="none" stroke="black" cx="585.13" cy="-249.2" rx="20.13" ry="20.13"/>
<ellipse fill="none" stroke="black" cx="585.13" cy="-249.2" rx="24.13" ry="24.13"/>
<text xml:space="preserve" text-anchor="middle" x="585.13" y="-244.15" font-family="Times,serif" font-size="14.00">31</text>
</g>
<!-- 51&#45;&gt;52 -->
<g id="edge59" class="edge">
<title>51&#45;&gt;52</title>
<path fill="none" stroke="black" d="M585.13,-331.76C585.13,-318.77 585.13,-300.53 585.13,-284.59"/>
<polygon fill="black" stroke="black" points="588.63,-285.01 585.13,-275.01 581.63,-285.01 588.63,-285.01"/>
<text xml:space="preserve" text-anchor="middle" x="587.38" y="-294.53" font-family="Times,serif" font-size="14.00">r</text>
</g>
<!-- 38 -->
<g id="node62" class="node">
<title>38</title>
<ellipse fill="none" stroke="black" cx="586.13" cy="-746.88" rx="18" ry="18"/>
</g>
<!-- 37&#45;&gt;38 -->
<g id="edge61" class="edge">
<title>37&#45;&gt;38</title>
<path fill="none" stroke="black" d="M548.35,-818.91C555.09,-806.24 564.76,-788.06 572.63,-773.26"/>
<polygon fill="black" stroke="black" points="575.66,-775.02 577.27,-764.55 569.48,-771.73 575.66,-775.02"/>
<text xml:space="preserve" text-anchor="middle" x="570.25" y="-786.08" font-family="Times,serif" font-size="14.00">e</text>
</g>
<!-- 39 -->
<g id="node63" class="node">
<title>39</title>
<ellipse fill="none" stroke="black" cx="640.13" cy="-652.25" rx="18" ry="18"/>
</g>
<!-- 38&#45;&gt;39 -->
<g id="edge62" class="edge">
<title>38&#45;&gt;39</title>
<path fill="none" stroke="black" d="M594.81,-731C603.1,-716.77 615.77,-695.04 625.6,-678.17"/>
<polygon fill="black" stroke="black" points="628.52,-680.11 630.53,-669.71 622.47,-676.59 628.52,-680.11"/>
<text xml:space="preserve" text-anchor="middle" x="618.13" y="-697.58" font-family="Times,serif" font-size="14.00">p</text>
</g>
<!-- 40 -->
<g id="node64" class="node">
<title>40</title>
<ellipse fill="none" stroke="black" cx="643.13" cy="-551.49" rx="18" ry="18"/>
</g>
<!-- 39&#45;&gt;40 -->
<g id="edge63" class="edge">
<title>39&#45;&gt;40</title>
<path fill="none" stroke="black" d="M640.65,-634.04C641.1,-619.41 641.75,-598.09 642.27,-580.91"/>
<polygon fill="black" stroke="black" points="645.75,-581.44 642.56,-571.34 638.76,-581.22 645.75,-581.44"/>
<text xml:space="preserve" text-anchor="middle" x="643.69" y="-596.82" font-family="Times,serif" font-size="14.00">t</text>
</g>
<!-- 41 -->
<g id="node65" class="node">
<title>41</title>
<ellipse fill="none" stroke="black" cx="644.13" cy="-450.72" rx="18" ry="18"/>
</g>
<!-- 40&#45;&gt;41 -->
<g id="edge64" class="edge">
<title>40&#45;&gt;41</title>
<path fill="none" stroke="black" d="M643.31,-533.28C643.45,-518.64 643.67,-497.32 643.84,-480.15"/>
<polygon fill="black" stroke="black" points="647.34,-480.61 643.94,-470.57 640.34,-480.54 647.34,-480.61"/>
<text xml:space="preserve" text-anchor="middle" x="646.69" y="-496.05" font-family="Times,serif" font-size="14.00">e</text>
</g>
<!-- 42 -->
<g id="node66" class="node">
<title>42</title>
<ellipse fill="none" stroke="black" cx="645.13" cy="-349.96" rx="18" ry="18"/>
</g>
<!-- 41&#45;&gt;42 -->
<g id="edge65" class="edge">
<title>41&#45;&gt;42</title>
<path fill="none" stroke="black" d="M644.31,-432.52C644.45,-417.88 644.67,-396.56 644.84,-379.39"/>
<polygon fill="black" stroke="black" points="648.34,-379.85 644.94,-369.81 641.34,-379.78 648.34,-379.85"/>
<text xml:space="preserve" text-anchor="middle" x="650.32" y="-395.29" font-family="Times,serif" font-size="14.00">m</text>
</g>
<!-- 43 -->
<g id="node67" class="node">
<title>43</title>
<ellipse fill="none" stroke="black" cx="645.13" cy="-249.2" rx="18" ry="18"/>
</g>
<!-- 42&#45;&gt;43 -->
<g id="edge66" class="edge">
<title>42&#45;&gt;43</title>
<path fill="none" stroke="black" d="M645.13,-331.76C645.13,-317.12 645.13,-295.8 645.13,-278.63"/>
<polygon fill="black" stroke="black" points="648.63,-279.05 645.13,-269.05 641.63,-279.05 648.63,-279.05"/>
<text xml:space="preserve" text-anchor="middle" x="648.51" y="-294.53" font-family="Times,serif" font-size="14.00">b</text>
</g>
<!-- 44 -->
<g id="node68" class="node">
<title>44</title>
<ellipse fill="none" stroke="black" cx="645.13" cy="-136.66" rx="18" ry="18"/>
</g>
<!-- 43&#45;&gt;44 -->
<g id="edge67" class="edge">
<title>43&#45;&gt;44</title>
<path fill="none" stroke="black" d="M645.13,-230.93C645.13,-213.65 645.13,-186.77 645.13,-166.3"/>
<polygon fill="black" stroke="black" points="648.63,-166.33 645.13,-156.33 641.63,-166.33 648.63,-166.33"/>
<text xml:space="preserve" text-anchor="middle" x="648.13" y="-193.77" font-family="Times,serif" font-size="14.00">e</text>
</g>
<!-- 45 -->
<g id="node69" class="node">
<title>45</title>
<ellipse fill="none" stroke="black" cx="645.13" cy="-24.13" rx="20.13" ry="20.13"/>
<ellipse fill="none" stroke="black" cx="645.13" cy="-24.13" rx="24.13" ry="24.13"/>
<text xml:space="preserve" text-anchor="middle" x="645.13" y="-19.08" font-family="Times,serif" font-size="14.00">30</text>
</g>
<!-- 44&#45;&gt;45 -->
<g id="edge68" class="edge">
<title>44&#45;&gt;45</title>
<path fill="none" stroke="black" d="M645.13,-118.39C645.13,-102.81 645.13,-79.4 645.13,-59.94"/>
<polygon fill="black" stroke="black" points="648.63,-59.95 645.13,-49.95 641.63,-59.95 648.63,-59.95"/>
<text xml:space="preserve" text-anchor="middle" x="647.38" y="-69.46" font-family="Times,serif" font-size="14.00">r</text>
</g>
</g>
</svg>
